<svg id="Capa_1" data-name="Capa 1" xmlns="http://www.w3.org/2000/svg" viewBox="0 0 24.39 33"><title>articulo</title><path d="M23.38,0H6.77a2,2,0,0,0-2,2V31a2,2,0,0,0,2,2H27.11a2,2,0,0,0,2-2V6.29Zm.47,3L26.38,5.8H23.85Zm3.59,28a.32.32,0,0,1-.33.32H6.77A.32.32,0,0,1,6.44,31v-29a.32.32,0,0,1,.33-.32H22.15V6.65A.86.86,0,0,0,23,7.5h4.44Z" transform="translate(-4.74 -0.03)"/><path d="M10.23,13.05a.91.91,0,1,0,0,1.81H22.9a.91.91,0,0,0,0-1.81Z" transform="translate(-4.74 -0.03)"/><path d="M22.9,18.59H10.23a.91.91,0,1,0,0,1.81H22.9a.91.91,0,0,0,0-1.81Z" transform="translate(-4.74 -0.03)"/><path d="M22.9,24.14H10.23a.9.9,0,1,0,0,1.8H22.9a.9.9,0,0,0,0-1.8Z" transform="translate(-4.74 -0.03)"/></svg>