<?xml version="1.0" encoding="utf-8"?>
<!-- Generator: Adobe Illustrator 22.1.0, SVG Export Plug-In . SVG Version: 6.00 Build 0)  -->
<svg version="1.1" id="Capa_1" xmlns="http://www.w3.org/2000/svg" xmlns:xlink="http://www.w3.org/1999/xlink" x="0px" y="0px"
	 viewBox="0 0 28 28" style="enable-background:new 0 0 28 28;" xml:space="preserve">
<g>
	<path d="M19.9,0H5.8C4.9,0,4.1,0.8,4.1,1.7v24.6c0,0.9,0.8,1.7,1.7,1.7h17.3c0.9,0,1.7-0.8,1.7-1.7v-21L19.9,0z M20.3,2.6l2.1,2.3
		h-2.1V2.6z M23.3,26.3c0,0.2-0.1,0.3-0.3,0.3H5.8c-0.2,0-0.3-0.1-0.3-0.3V1.7c0-0.2,0.1-0.3,0.3-0.3h13.1v4.2
		c0,0.4,0.3,0.7,0.7,0.7h3.8V26.3z"/>
	<path d="M8.7,10.2C8.3,10.2,8,10.6,8,11c0,0.4,0.3,0.8,0.8,0.8h10.8c0.4,0,0.8-0.3,0.8-0.8c0-0.4-0.3-0.8-0.8-0.8H8.7z"/>
	<path d="M19.5,14.9H8.7c-0.4,0-0.8,0.3-0.8,0.8c0,0.4,0.3,0.8,0.8,0.8h10.8c0.4,0,0.8-0.3,0.8-0.8C20.3,15.3,19.9,14.9,19.5,14.9z"
		/>
	<path d="M19.5,19.6H8.7C8.3,19.6,8,20,8,20.4c0,0.4,0.3,0.8,0.8,0.8h10.8c0.4,0,0.8-0.3,0.8-0.8C20.3,20,19.9,19.6,19.5,19.6z"/>
</g>
</svg>
