<?xml version="1.0" encoding="utf-8"?>
<!-- Generator: Adobe Illustrator 22.0.1, SVG Export Plug-In . SVG Version: 6.00 Build 0)  -->
<svg version="1.1" id="Capa_1" xmlns="http://www.w3.org/2000/svg" xmlns:xlink="http://www.w3.org/1999/xlink" x="0px" y="0px"
	 viewBox="0 0 50 50" style="enable-background:new 0 0 50 50;" xml:space="preserve">
<g>
	<path d="M45.4,40.7L45.4,40.7c-1.1-0.5-1.8-1.6-2.3-2.5c5-6.1,4.5-15.3-1.1-20.9c-2.2-2.2-5.1-3.7-8.2-4.3l-0.5-0.1l0.3,0.5
		c0.4,0.6,0.8,1.3,1.1,2.1l0,0.1l0.1,0c2.1,0.6,4,1.8,5.6,3.3c5,5,5.2,13.1,0.6,18.4c-0.1,0.2-0.2,0.4-0.3,0.6
		c-0.1,0.2,0,0.5,0.1,0.7c0.4,0.9,1.1,2.2,2.2,3.2c-1.1-0.1-2.4-0.5-3.8-1.5c0,0-0.1-0.1-0.1-0.1c-0.4-0.3-0.9-0.4-1.3-0.2
		c-4.6,2.7-10.3,2.4-14.7-0.7L23,39.2l-0.1,0c-0.7,0.2-1.5,0.3-2.3,0.3l-0.5,0l0.4,0.4C23.3,42.5,27.1,44,31,44c2.5,0,5-0.6,7.2-1.8
		c2.1,1.4,4.1,1.8,5.4,1.8c0.4,0,0.9,0,1.3-0.1c0.7-0.1,1.3-0.7,1.4-1.4C46.4,41.7,46,41,45.4,40.7z"/>
	<path d="M35,22.6c0-4.2-1.6-8.1-4.6-11c-3-3-6.9-4.6-11-4.6s-8.1,1.6-11,4.6c-5.6,5.6-6.1,14.8-1.1,20.9c-0.4,0.9-1.2,2-2.3,2.5
		c-0.7,0.3-1,1-0.9,1.8c0.1,0.7,0.7,1.3,1.4,1.4c0.4,0.1,0.8,0.1,1.3,0.1c1.3,0,3.4-0.3,5.4-1.8c2.2,1.2,4.7,1.8,7.2,1.8
		c4.2,0,8.1-1.6,11.1-4.6C33.3,30.7,35,26.7,35,22.6z M9.5,32.7c0.1-0.2,0.1-0.5,0.1-0.7c0-0.2-0.1-0.4-0.3-0.6
		c-4.7-5.3-4.4-13.4,0.6-18.4c2.5-2.5,5.9-3.9,9.5-3.9c3.6,0,7,1.4,9.5,3.9c2.5,2.5,3.9,5.9,3.9,9.5c0,3.6-1.4,6.9-3.9,9.5
		c-4.3,4.3-11,5.2-16.3,2.1C12.4,34,12.2,34,12,34c-0.3,0-0.6,0.1-0.8,0.3c0,0-0.1,0-0.1,0.1c-1.4,1.1-2.8,1.5-3.8,1.6
		C8.4,34.9,9.1,33.7,9.5,32.7z"/>
	<circle cx="19.3" cy="22.6" r="2"/>
	<circle cx="25.1" cy="22.6" r="2"/>
	<circle cx="13.4" cy="22.6" r="2"/>
</g>
</svg>
