<?xml version="1.0" encoding="utf-8"?>
<!-- Generator: Adobe Illustrator 22.1.0, SVG Export Plug-In . SVG Version: 6.00 Build 0)  -->
<svg version="1.1" id="Capa_1" xmlns="http://www.w3.org/2000/svg" xmlns:xlink="http://www.w3.org/1999/xlink" x="0px" y="0px"
	 viewBox="0 0 33 33" style="enable-background:new 0 0 33 33;" xml:space="preserve">
<g>
	<path d="M32.5,28L32.5,28c-0.8-0.4-1.4-1.3-1.8-1.9c3.8-4.7,3.5-11.8-0.8-16.1c-1.7-1.7-3.9-2.9-6.3-3.3l-0.4-0.1l0.2,0.3
		c0.3,0.5,0.6,1,0.9,1.6l0,0.1l0.1,0c1.6,0.5,3.1,1.4,4.3,2.6c3.9,3.9,4,10.1,0.4,14.2c-0.1,0.1-0.2,0.3-0.2,0.5c0,0.2,0,0.4,0,0.6
		c0.3,0.7,0.9,1.7,1.7,2.4c-0.8-0.1-1.9-0.4-2.9-1.2c0,0-0.1,0-0.1-0.1c-0.3-0.3-0.7-0.3-1-0.1c-3.5,2.1-8,1.9-11.3-0.6l-0.1,0
		l-0.1,0c-0.6,0.1-1.2,0.2-1.8,0.3l-0.4,0l0.3,0.3c2.2,2,5.1,3.2,8.1,3.2c1.9,0,3.9-0.5,5.6-1.4c1.6,1.1,3.2,1.4,4.2,1.4
		c0.3,0,0.7,0,1-0.1c0.6-0.1,1-0.5,1.1-1.1C33.3,28.7,33.1,28.2,32.5,28z"/>
	<path d="M24.5,14c0-3.2-1.3-6.2-3.5-8.5c-2.3-2.3-5.3-3.5-8.5-3.5S6.2,3.2,3.9,5.4c-4.3,4.3-4.7,11.4-0.8,16.1
		c-0.3,0.7-0.9,1.5-1.8,1.9c-0.5,0.3-0.8,0.8-0.7,1.3c0.1,0.6,0.5,1,1.1,1.1C2,26,2.3,26,2.7,26c1,0,2.6-0.2,4.2-1.4
		c1.7,0.9,3.6,1.4,5.6,1.4c3.2,0,6.2-1.3,8.5-3.5C23.2,20.2,24.5,17.2,24.5,14z M4.9,21.8c0.1-0.2,0.1-0.4,0-0.5
		c0-0.2-0.1-0.3-0.2-0.5C1.1,16.7,1.3,10.5,5.1,6.7c1.9-1.9,4.5-3,7.3-3c2.8,0,5.4,1.1,7.3,3c2,1.9,3,4.5,3,7.3c0,2.8-1.1,5.4-3,7.3
		c-3.3,3.3-8.5,4-12.5,1.6c-0.1-0.1-0.3-0.1-0.4-0.1c-0.2,0-0.4,0.1-0.6,0.2c0,0,0,0-0.1,0c-1.1,0.8-2.1,1.1-2.9,1.2
		C4,23.5,4.6,22.5,4.9,21.8z"/>
	<circle cx="12.5" cy="14" r="1.5"/>
	<circle cx="16.9" cy="14" r="1.5"/>
	<circle cx="7.9" cy="14" r="1.5"/>
</g>
</svg>
