<?xml version="1.0" encoding="utf-8"?>
<!-- Generator: Adobe Illustrator 22.1.0, SVG Export Plug-In . SVG Version: 6.00 Build 0)  -->
<svg version="1.1" id="Capa_1" xmlns="http://www.w3.org/2000/svg" xmlns:xlink="http://www.w3.org/1999/xlink" x="0px" y="0px"
	 viewBox="0 0 28 28" style="enable-background:new 0 0 28 28;" xml:space="preserve">
<g>
	<path d="M27.2,24L27.2,24c-0.7-0.4-1.2-1.1-1.5-1.6c3.3-4,3-10-0.7-13.7c-1.5-1.5-3.3-2.4-5.3-2.8l-0.3-0.1l0.2,0.3
		c0.3,0.4,0.5,0.9,0.7,1.4l0,0.1l0.1,0C21.7,8,23,8.7,24,9.7c3.3,3.3,3.4,8.5,0.4,12c-0.1,0.1-0.2,0.3-0.2,0.4c0,0.2,0,0.3,0,0.5
		c0.3,0.6,0.7,1.4,1.4,2.1c-0.7-0.1-1.6-0.3-2.5-1c0,0,0,0-0.1-0.1c-0.2-0.2-0.6-0.3-0.9-0.1c-3,1.8-6.8,1.6-9.6-0.5l-0.1,0l-0.1,0
		c-0.5,0.1-1,0.2-1.5,0.2l-0.3,0l0.3,0.2c1.9,1.7,4.3,2.7,6.9,2.7c1.6,0,3.3-0.4,4.7-1.2c1.4,0.9,2.7,1.1,3.6,1.1
		c0.3,0,0.6,0,0.8-0.1c0.5-0.1,0.8-0.4,0.9-0.9C27.9,24.7,27.7,24.2,27.2,24z"/>
	<path d="M20.4,12.1c0-2.7-1.1-5.3-3-7.2c-1.9-1.9-4.5-3-7.2-3S4.9,3,3,4.9c-3.7,3.7-4,9.7-0.7,13.7c-0.3,0.6-0.8,1.3-1.5,1.6
		c-0.4,0.2-0.7,0.7-0.6,1.1c0.1,0.5,0.4,0.8,0.9,0.9c0.3,0,0.5,0.1,0.8,0.1c0.9,0,2.2-0.2,3.6-1.1c1.5,0.8,3.1,1.2,4.7,1.2
		c2.7,0,5.3-1.1,7.2-3C19.4,17.4,20.4,14.9,20.4,12.1z M3.8,18.8c0.1-0.2,0.1-0.3,0-0.4c0-0.1-0.1-0.3-0.2-0.4
		C0.6,14.5,0.7,9.2,4,5.9c1.7-1.7,3.9-2.6,6.2-2.6c2.3,0,4.5,0.9,6.2,2.6C18,7.6,19,9.8,19,12.1c0,2.3-0.9,4.5-2.6,6.2
		c-2.8,2.8-7.2,3.4-10.6,1.4c-0.1-0.1-0.2-0.1-0.4-0.1c-0.2,0-0.4,0.1-0.5,0.2c0,0,0,0,0,0c-0.9,0.7-1.8,1-2.5,1
		C3,20.2,3.5,19.4,3.8,18.8z"/>
	<circle cx="10.2" cy="12.1" r="1.3"/>
	<circle cx="14" cy="12.1" r="1.3"/>
	<circle cx="6.3" cy="12.1" r="1.3"/>
</g>
</svg>
