<?xml version="1.0" encoding="utf-8"?>
<!-- Generator: Adobe Illustrator 22.0.1, SVG Export Plug-In . SVG Version: 6.00 Build 0)  -->
<svg version="1.1" id="Capa_1" xmlns="http://www.w3.org/2000/svg" xmlns:xlink="http://www.w3.org/1999/xlink" x="0px" y="0px"
	 viewBox="0 0 50 50" style="enable-background:new 0 0 50 50;" xml:space="preserve">
<path d="M36.3,26c0.5-0.5,0.5-1.2,0-1.6c-0.5-0.5-1.2-0.5-1.7,0l-8.5,8.3V5.3c0-0.6-0.5-1.2-1.2-1.2c-0.7,0-1.2,0.5-1.2,1.2v27.3
	l-8.5-8.3c-0.5-0.5-1.2-0.5-1.7,0c-0.5,0.5-0.5,1.2,0,1.6l10.5,10.2c0.5,0.4,1.2,0.4,1.7,0L36.3,26z M44.6,33.5
	c0-0.6,0.5-1.1,1.2-1.1c0.7,0,1.2,0.5,1.2,1.1v11.2c0,0.6-0.5,1.2-1.2,1.2H4.2c-0.7,0-1.2-0.5-1.2-1.2V33.5c0-0.6,0.5-1.1,1.2-1.1
	c0.6,0,1.2,0.5,1.2,1.1v10.1h39.3V33.5z M44.6,33.5"/>
</svg>
