<svg id="Capa_1" data-name="Capa 1" xmlns="http://www.w3.org/2000/svg" viewBox="0 0 55 55"><defs><style>.cls-1{fill:#231f20;}</style></defs><title>economia</title><path class="cls-1" d="M7,37.63c-.75,0-1.36.9-1.36,2V53c0,1.12.61,2,1.36,2s1.37-.9,1.37-2V39.65C8.41,38.53,7.8,37.63,7,37.63Z" transform="translate(0 0)"/><path class="cls-1" d="M17.33,25.68c-.76,0-1.37.91-1.37,2V53c0,1.12.61,2,1.37,2s1.36-.9,1.36-2V27.71C18.69,26.59,18.08,25.68,17.33,25.68Z" transform="translate(0 0)"/><path class="cls-1" d="M27.61,32.21c-.75,0-1.36.9-1.36,2V53c0,1.12.61,2,1.36,2S29,54.1,29,53V34.23C29,33.11,28.36,32.21,27.61,32.21Z" transform="translate(0 0)"/><path class="cls-1" d="M37.89,26.79c-.75,0-1.36.91-1.36,2V53c0,1.12.61,2,1.36,2s1.36-.9,1.36-2V28.81C39.25,27.7,38.64,26.79,37.89,26.79Z" transform="translate(0 0)"/><path class="cls-1" d="M48.17,18.25c-.75,0-1.36.9-1.36,2V53c0,1.12.61,2,1.36,2s1.36-.9,1.36-2V20.27C49.53,19.15,48.92,18.25,48.17,18.25Z" transform="translate(0 0)"/><path class="cls-1" d="M43.77,2.19l1.59,3.29L30.09,21.09,19.45,9.5l0,0a2.3,2.3,0,0,0-1.77-1,2.55,2.55,0,0,0-2.14,1.57L.75,30.37h0A3.75,3.75,0,0,0,0,32.71c0,1.66.91,3,2,3a1.63,1.63,0,0,0,1.17-.54v0L18.06,14.69,28.24,26l.05,0a2.08,2.08,0,0,0,1.53.76,1.85,1.85,0,0,0,1-.3,2.39,2.39,0,0,0,1-.49l15.8-15.93,2.44,5L55,0Z" transform="translate(0 0)"/></svg>