<?xml version="1.0" encoding="utf-8"?>
<!-- Generator: Adobe Illustrator 22.0.1, SVG Export Plug-In . SVG Version: 6.00 Build 0)  -->
<svg version="1.1" id="Capa_1" xmlns="http://www.w3.org/2000/svg" xmlns:xlink="http://www.w3.org/1999/xlink" x="0px" y="0px"
	 viewBox="0 0 50 50" style="enable-background:new 0 0 50 50;" xml:space="preserve">
<g>
	<g>
		<path d="M38.9,7.4h-7.1c-0.4-3-3-5.4-6.1-5.4c-3.2,0-5.8,2.4-6.1,5.4h-7.1c-2.9,0-5.2,2.3-5.2,5.2v0.3c0,2.2,1.4,4,3.3,4.8V42
			c0,2.8,2.3,5.2,5.2,5.2h19.9c2.9,0,5.2-2.3,5.2-5.2V17.6c1.9-0.8,3.3-2.6,3.3-4.8v-0.3C44.1,9.7,41.8,7.4,38.9,7.4z M25.7,4.4
			c1.8,0,3.3,1.3,3.6,3H22C22.4,5.7,23.9,4.4,25.7,4.4z M38.4,42c0,1.5-1.2,2.7-2.7,2.7H15.7c-1.5,0-2.7-1.2-2.7-2.7V18h25.4V42z
			 M41.7,12.8c0,1.5-1.2,2.7-2.7,2.7H12.4c-1.5,0-2.7-1.2-2.7-2.7v-0.3c0-1.5,1.2-2.7,2.7-2.7h26.5c1.5,0,2.7,1.2,2.7,2.7V12.8z
			 M19,41.5c0.7,0,1.2-0.5,1.2-1.2V26.6c0-0.7-0.6-1.2-1.2-1.2c-0.7,0-1.2,0.5-1.2,1.2v13.8C17.8,41,18.4,41.5,19,41.5z M25.7,41.5
			c0.7,0,1.2-0.5,1.2-1.2V26.6c0-0.7-0.6-1.2-1.2-1.2c-0.7,0-1.2,0.5-1.2,1.2v13.8C24.4,41,25,41.5,25.7,41.5z M32.3,41.5
			c0.7,0,1.2-0.5,1.2-1.2V26.6c0-0.7-0.6-1.2-1.2-1.2s-1.2,0.5-1.2,1.2v13.8C31.1,41,31.6,41.5,32.3,41.5z"/>
	</g>
</g>
</svg>
