<?xml version="1.0" encoding="utf-8"?>
<!-- Generator: Adobe Illustrator 22.0.1, SVG Export Plug-In . SVG Version: 6.00 Build 0)  -->
<svg version="1.1" id="Capa_1" xmlns="http://www.w3.org/2000/svg" xmlns:xlink="http://www.w3.org/1999/xlink" x="0px" y="0px"
	 viewBox="0 0 50 50" style="enable-background:new 0 0 50 50;" xml:space="preserve">
<g>
	<rect x="13.3" y="22.8" width="18.7" height="1.6"/>
	<polygon points="30,27.5 13.3,27.5 13.3,29 28.5,29 	"/>
	<polygon points="25.3,32.1 13.3,32.1 13.3,33.7 23.8,33.7 	"/>
	<rect x="13.3" y="36.8" width="7.8" height="1.6"/>
	<path d="M45.5,20.7l-2.2-2.2c-0.6-0.6-1.6-0.6-2.2,0c-5.6,5.6-11.3,11.3-16.9,16.9c0,2.7,0,2.1,0,4.5c3.8,0,2.8,0,4.4,0
		c0.8-0.8,4.4-4.4,8.1-8.1v11.2c0,0.9-0.7,1.6-1.6,1.6H10.2c-0.9,0-1.6-0.7-1.6-1.6V15c0-0.9,0.7-1.6,1.6-1.6h3.1v3.1H32v-3.1l3.1,0
		c0.9,0,1.6,0.7,1.6,1.6v5.8l1.6-1.6V15c0-1.7-1.4-3.1-3.1-3.1h-3.4c-0.5-1.4-1.7-2.5-3.1-2.9c-0.7-0.2-1.3-0.8-1.5-1.5
		c-0.6-2-2.4-3.4-4.5-3.4c-2.1,0-3.9,1.4-4.5,3.4c-0.2,0.7-0.8,1.3-1.5,1.5c-1.5,0.4-2.6,1.5-3.1,2.9h-3.4C8.4,11.9,7,13.3,7,15
		v28.1c0,1.7,1.4,3.1,3.1,3.1h24.9c1.7,0,3.1-1.4,3.1-3.1V30.3c3.4-3.4,6.5-6.5,7.3-7.3C46.2,22.3,46.2,21.4,45.5,20.7z M14.8,13.4
		c0-1.4,0.9-2.6,2.3-3c1.2-0.4,2.2-1.3,2.5-2.5c0.4-1.3,1.6-2.3,3-2.3c1.4,0,2.6,0.9,3,2.3c0.4,1.2,1.3,2.2,2.5,2.5
		c1.3,0.4,2.3,1.6,2.3,3V15H14.8V13.4z M27.9,38.4c-0.4,0-0.6,0-1.1,0l-1-1v-1.2c0.4-0.4,0.7-0.7,1.1-1.1l2.2,2.2L27.9,38.4z
		 M30.1,36.2L27.9,34l9.9-9.9l2.2,2.2L30.1,36.2z M41.1,25.2L38.9,23l1.1-1.1l2.2,2.2L41.1,25.2z M43.3,23l-2.2-2.2l1.1-1.1l2.2,2.2
		L43.3,23z"/>
	<circle cx="22.7" cy="8.7" r="1.2"/>
</g>
</svg>
