<?xml version="1.0" encoding="utf-8"?>
<!-- Generator: Adobe Illustrator 22.1.0, SVG Export Plug-In . SVG Version: 6.00 Build 0)  -->
<svg version="1.1" id="Capa_1" xmlns="http://www.w3.org/2000/svg" xmlns:xlink="http://www.w3.org/1999/xlink" x="0px" y="0px"
	 viewBox="0 0 28 28" style="enable-background:new 0 0 28 28;" xml:space="preserve">
<g>
	<rect x="5.8" y="12.5" width="12.4" height="1"/>
	<polygon points="16.9,15.6 5.8,15.6 5.8,16.7 15.9,16.7 	"/>
	<polygon points="13.8,18.7 5.8,18.7 5.8,19.8 12.8,19.8 	"/>
	<rect x="5.8" y="21.8" width="5.2" height="1"/>
	<path d="M27.3,11.1l-1.5-1.5c-0.4-0.4-1.1-0.4-1.5,0c-3.7,3.7-7.5,7.5-11.3,11.3c0,1.8,0,1.4,0,3c2.5,0,1.9,0,2.9,0
		c0.5-0.5,2.9-2.9,5.4-5.4V26c0,0.6-0.5,1-1,1H3.7c-0.6,0-1-0.5-1-1V7.3c0-0.6,0.5-1,1-1h2.1v2.1h12.4V6.3l2.1,0c0.6,0,1,0.5,1,1
		v3.9l1-1V7.3c0-1.1-0.9-2.1-2.1-2.1h-2.3c-0.3-0.9-1.1-1.7-2.1-2c-0.5-0.1-0.8-0.5-1-1c-0.4-1.3-1.6-2.2-3-2.2c-1.4,0-2.6,1-3,2.2
		c-0.1,0.5-0.5,0.8-1,1c-1,0.3-1.7,1-2.1,2H3.7c-1.1,0-2.1,0.9-2.1,2.1V26c0,1.1,0.9,2.1,2.1,2.1h16.6c1.1,0,2.1-0.9,2.1-2.1v-8.5
		c2.2-2.2,4.3-4.3,4.9-4.9C27.7,12.2,27.7,11.6,27.3,11.1z M6.8,6.3c0-0.9,0.6-1.7,1.5-2C9.2,4.1,9.8,3.4,10,2.6
		c0.3-0.9,1.1-1.5,2-1.5c0.9,0,1.7,0.6,2,1.5c0.2,0.8,0.9,1.5,1.7,1.7c0.9,0.3,1.5,1.1,1.5,2v1H6.8V6.3z M15.5,22.9
		c-0.3,0-0.4,0-0.8,0l-0.7-0.7v-0.8c0.3-0.3,0.4-0.4,0.7-0.7l1.5,1.5L15.5,22.9z M17,21.4l-1.5-1.5l6.6-6.6l1.5,1.5L17,21.4z
		 M24.3,14.1l-1.5-1.5l0.7-0.7l1.5,1.5L24.3,14.1z M25.8,12.6l-1.5-1.5l0.7-0.7l1.5,1.5L25.8,12.6z"/>
	<circle cx="12" cy="3.2" r="0.8"/>
</g>
</svg>
