<?xml version="1.0" encoding="utf-8"?>
<!-- Generator: Adobe Illustrator 22.1.0, SVG Export Plug-In . SVG Version: 6.00 Build 0)  -->
<svg version="1.1" id="Capa_1" xmlns="http://www.w3.org/2000/svg" xmlns:xlink="http://www.w3.org/1999/xlink" x="0px" y="0px"
	 viewBox="0 0 28 28" enable-background="new 0 0 28 28" xml:space="preserve">
<g>
	<path d="M27.1,4.3c-0.5,0-0.9,0.4-0.9,0.9v21H1.7v-21c0-0.5-0.4-0.9-0.9-0.9S0,4.7,0,5.2v21.9C0,27.6,0.4,28,0.9,28h26.3
		c0.5,0,0.9-0.4,0.9-0.9V5.2C28,4.7,27.6,4.3,27.1,4.3z"/>
	<rect x="7" width="3.3" height="6.9"/>
	<rect x="17" width="3.3" height="6.9"/>
	<rect x="12.3" y="8.4" width="3.3" height="3.4"/>
	<rect x="19.8" y="8.4" width="3.3" height="3.4"/>
	<rect x="12.3" y="14.1" width="3.3" height="3.4"/>
	<rect x="4.8" y="14.1" width="3.3" height="3.4"/>
	<rect x="12.3" y="19.9" width="3.3" height="3.4"/>
	<rect x="4.8" y="19.9" width="3.3" height="3.4"/>
	<rect x="19.8" y="14.1" width="3.3" height="3.4"/>
</g>
</svg>
