<?xml version="1.0" encoding="utf-8"?>
<!-- Generator: Adobe Illustrator 22.0.1, SVG Export Plug-In . SVG Version: 6.00 Build 0)  -->
<svg version="1.1" id="Capa_1" xmlns="http://www.w3.org/2000/svg" xmlns:xlink="http://www.w3.org/1999/xlink" x="0px" y="0px"
	 viewBox="0 0 50 50" style="enable-background:new 0 0 50 50;" xml:space="preserve">
<path d="M41.1,17.3L27,3.3c-0.1-0.1-0.2-0.2-0.3-0.2C26.5,3,26.2,3,26,3.1c-0.1,0.1-0.2,0.1-0.3,0.2L11.8,17.2c-0.4,0.4-0.4,1,0,1.4
	c0.4,0.4,1,0.4,1.4,0L25.4,6.4v39.8c0,0.5,0.4,1,1,1c0.5,0,1-0.4,1-1V6.4l12.4,12.4c0.2,0.2,0.4,0.3,0.7,0.3c0.3,0,0.5-0.1,0.7-0.3
	C41.5,18.4,41.5,17.7,41.1,17.3z"/>
</svg>
