<?xml version="1.0" encoding="utf-8"?>
<!-- Generator: Adobe Illustrator 22.0.1, SVG Export Plug-In . SVG Version: 6.00 Build 0)  -->
<svg version="1.1" id="Capa_1" xmlns="http://www.w3.org/2000/svg" xmlns:xlink="http://www.w3.org/1999/xlink" x="0px" y="0px"
	 viewBox="0 0 50 50" style="enable-background:new 0 0 50 50;" xml:space="preserve">
<g>
	<g>
		<path d="M45.7,16.7c-2.4-5.1-6.4-8.8-11.9-11C31,4.6,28,4,25,4c-3,0-5.9,0.6-8.7,1.7c-5.5,2.2-9.6,5.9-11.9,11
			c-1.2,2.6-1.8,5.2-1.8,8.1c0,2.8,0.6,5.5,1.8,8.1c2.4,5.1,6.4,8.9,11.9,11.1c2.8,1.1,5.7,1.7,8.7,1.7c3,0,6-0.6,8.7-1.7
			c5.6-2.2,9.6-5.9,11.9-11.1c1.2-2.6,1.8-5.3,1.8-8.1C47.5,21.9,46.9,19.3,45.7,16.7z M42.1,33.9c-1.8,2.8-4.2,5-7.2,6.7
			c-3,1.6-6.3,2.5-9.9,2.5c-2.7,0-5.2-0.5-7.7-1.5c-2.4-1-4.5-2.3-6.3-3.9c-1.8-1.6-3.2-3.6-4.2-5.8c-1-2.2-1.5-4.6-1.5-7.1
			c0-3.3,0.9-6.3,2.6-9.1c1.8-2.8,4.2-5,7.2-6.7c3-1.6,6.3-2.5,9.9-2.5c3.6,0,6.9,0.8,9.9,2.5c3,1.6,5.4,3.9,7.2,6.7
			c1.8,2.8,2.6,5.8,2.6,9.1C44.7,28.1,43.9,31.1,42.1,33.9z M26.4,24.6V12.8c0-0.7-0.7-1.3-1.4-1.3c-0.7,0-1.3,0.6-1.3,1.3v12
			c0,0,0,0.1,0,0.2c0,0.4,0.1,0.8,0.4,1l7.3,6.8c0.5,0.5,1.4,0.5,1.9,0c0.6-0.5,0.5-1.3,0-1.8L26.4,24.6z"/>
	</g>
</g>
</svg>
