<?xml version="1.0" encoding="utf-8"?>
<!-- Generator: Adobe Illustrator 22.1.0, SVG Export Plug-In . SVG Version: 6.00 Build 0)  -->
<svg version="1.1" id="Capa_1" xmlns="http://www.w3.org/2000/svg" xmlns:xlink="http://www.w3.org/1999/xlink" x="0px" y="0px"
	 viewBox="0 0 1841.9 895.9" style="enable-background:new 0 0 1841.9 895.9;" xml:space="preserve">
<style type="text/css">
	.st0{fill:#184184;}
</style>
<g>
	<g>
		<g>
			<path class="st0" d="M355.2,475l-8.4-9.5l0.2-84.9l8.2-9.4h-38.1l8.3,9.3v68.8c0,0-24.3,30.3-48.5,3.4c0,0-24.8-25.7,5.6-81.6
				h-28.2l8.7,9.3c0,0-27.8,47.3,0,78.6c0,0,27.1,31.3,62.5,5v11H355.2z"/>
			<g>
				<g>
					<path class="st0" d="M310.8,330.3l-31.7,0.5l9.3,8.9l0,174.2L280,523h37.7l-8.3-9.2l-0.5-101.5c0,0,71.9,3.9,71.9-41.8
						C380.6,366.9,382.7,330.3,310.8,330.3z M308.4,402.9c0,0,0-61.3,0-63.3c4.4-0.1,9-0.2,18.7,0.4c36,1.7,35.5,27.3,35.5,27.3
						C362.6,410.8,308.4,402.9,308.4,402.9z"/>
				</g>
			</g>
			<g>
				<path class="st0" d="M182.1,435.4c-3.8-5.1-8.9-4.9-14.3-4.7l-0.6,0.1l-17.6,0.9h-0.4l0,0.4c0.2,0.6,0.3,1.3,0.3,1.9
					c0,0.7,0,1.4,0,2l-0.1,0.5l0.3-0.1l15.1-0.8c2.4-0.2,8-0.5,10.1,0.3c4.3,1.5,6.1,3.8,6.3,8.3c0.1,2.3-0.4,4.1-1.7,5.7
					c-1.5,1.8-2.8,2.2-5.3,2.8c-2.2,0.5-5.4,0.7-8,0.8l-1.3,0l-14.1,0.8l-0.3,0.1l0,0.4l0.1,0.9c0.2,0.9,0.3,1.9,0.4,2.8
					c0,0.9,0,1.9-0.1,2.8v1l-0.1,0.4l0.4-0.1l20.3-1.1c2.2-0.1,4.3-0.5,6.2-1.1c7.3-2.6,8-10.7,7.8-15.4
					C185.2,442.3,184.6,438.4,182.1,435.4z"/>
				<path class="st0" d="M183.5,421l-0.1-0.4c0-0.2,0-0.5-0.1-0.6c0-0.5,0-1-0.1-1.4c0-0.4,0.1-0.8,0.1-1.3c0-0.2,0-0.4,0-0.7l0-0.4
					l-0.4,0.1l-23.1,0.6l4.9-5c4.4-4.4,8.9-8.7,13.5-13.3l4.4-4.2l0.1,0v-0.2l-0.1-4.3v-0.4h-0.3l-34,0.9h-0.4l0,0.4
					c0.1,0.6,0.3,1.3,0.3,2c0,0.7,0,1.3-0.2,2v0.4h0.4l22.3-0.6c-4.7,4.4-9.2,9-13.6,13.4c-2.8,2.8-5.6,5.7-8.4,8.4l-0.1,0.1v0.2
					l0.2,5v0.3h0.3l33.9-0.9H183.5z"/>
				<path class="st0" d="M148,373.6c0.1,0.9,0.2,1.8,0.2,2.8c0,0.9-0.1,1.8-0.2,2.7l-0.1,1l0,0.4l0.4,0l34.1-0.1h0.4l0-0.4l-0.1-0.9
					c-0.1-0.9-0.1-1.8-0.1-2.8c0-0.9,0-1.9,0.1-2.7l0.1-1l0-0.4h-0.4l-34.1,0.1h-0.4v0.4L148,373.6z"/>
				<path class="st0" d="M182.6,352.7l0.3-0.1l0-0.3c0-0.2-0.1-0.4-0.1-0.6c-0.1-0.5-0.1-1-0.1-1.6c0-0.5,0.1-1,0.2-1.5
					c0-0.2,0-0.4,0-0.6l0-0.2l-0.2-0.1c-10.3-4-20.4-8.7-30.1-13.2l-3.6-1.7l-0.5-0.2l0,0.6c0.1,0.8,0.1,1.6,0.1,2.3
					c0,0.7-0.1,1.6-0.2,2.3l0,0.3l0.3,0.1c8.6,3,17,6.6,23.5,9.7l-6.9,2.4c-5.6,1.9-11.3,4-17,5.5l-0.3,0.1l0,0.3l0,1.1
					c0.1,1.1,0.2,2.2,0.2,3.4c-0.1,1-0.2,2.2-0.3,3.2l-0.1,1.1l0,0.6l0.5-0.2C161.5,360.2,172.3,356.2,182.6,352.7z"/>
				<path class="st0" d="M183,328.6h0.4v-0.3l1.3-19.2v-0.4h-0.4l-0.5,0c-0.5,0-1.1,0.1-1.6,0.1c-0.5-0.1-1-0.2-1.6-0.3l-0.5-0.1
					l-0.4-0.1v0.5c0.2,3.3,0.2,6.7-0.1,11.3l-11.9-0.8l0.3-4.9c0.1-1.9,0.5-3.9,0.9-6.1l0.1-0.5h-0.4l-0.6,0.1c-0.5,0-1.1,0.1-1.6,0
					c-0.5,0-1-0.1-1.5-0.3l-0.6-0.1l-0.4-0.1l0.1,0.4c0.1,2.3,0.1,4.3,0,6.2l-0.4,4.8l-9.9-0.7c0.2-4.8,0.8-8,1.4-11.1l0.1-0.5
					l-0.5,0.1l-0.5,0c-0.5,0-1.1,0.1-1.6,0.1c-0.5,0-1.1-0.2-1.6-0.3l-0.5-0.1l-0.4-0.1l0,0.4l-1.3,19.2v0.4h0.4L183,328.6z"/>
				<path class="st0" d="M185.3,277.4L182,279c-3.7,1.7-7.5,3.5-11.4,5.1c-0.5-5-3.4-8.2-8-8.9c-3.4-0.5-6,0.7-8,3.5
					c-1.3,1.7-1.7,5.1-2.1,7.5l0,0.5l-1.4,10.6l-0.1,0.3l0.4,0.1l33.7,4.7l0.4,0.1v-0.4l0.1-0.9c0.1-0.9,0.1-1.9,0.3-2.8
					c0.1-0.9,0.3-1.8,0.5-2.7l0.1-1l0.1-0.4l-0.3,0l-15.1-2.1l2.2-1c1.2-0.4,2.4-1,3.1-1.3l11.2-4.5l0.2-0.1v-0.2l0.1-1.1
					c0.1-1.1,0.1-2.3,0.3-3.4c0.1-1.1,0.4-2.3,0.6-3.4l0.3-1l0.1-0.7l-0.6,0.2L185.3,277.4z M168,291.9l-12.5-1.8l0-0.4
					c0.3-2.9,0.7-5.9,4.3-6c0.9-0.1,1.6,0,2.4,0.1c2.5,0.3,4.2,1.3,5.1,2.6C168.2,287.8,168.4,289.5,168,291.9z"/>
				<path class="st0" d="M185.8,248.6c-6.4-1.8-10.3,2.4-13.4,5.8c-2.4,2.6-4.5,4.8-7,4.1c-2.9-0.9-3.8-3-2.9-6.3
					c0.9-3.1,3.5-3.9,5.4-4.1h0.2l0.1-0.3l0.3-0.7l0.1-0.2l-0.3-0.1c-1.3-0.9-2.8-1.9-4.2-3l-0.2-0.2l-0.2,0.1
					c-1.3,0.7-3.6,3.5-4.7,7.1c-1.1,3.6-0.9,6.9,0.6,9.6c1.2,2.4,3.5,4.2,6.4,5.1c6.5,2,9.9-1.8,12.9-5.3c2.4-2.7,4.4-5,7.6-4.1
					c1.3,0.4,2.2,1.1,2.8,2.2c0.7,1.2,0.8,2.9,0.3,4.5c-1,3.2-3.5,5-6.9,4.8h-0.2l-0.1,0.3l-0.3,0.8l-0.1,0.3l0.3,0.1
					c2,0.9,3.8,2.1,5.6,3.2l0.2,0.2l0.2-0.2c2-1.8,3.6-4.4,4.4-7.3c1.3-4.1,1.1-8.1-0.7-11.3C190.6,251.2,188.5,249.5,185.8,248.6z"
					/>
				<path class="st0" d="M175.8,219.7l-0.3-0.2l-0.2,0.3l-0.4,0.8c-0.5,0.8-0.9,1.7-1.4,2.4c-0.5,0.8-1.1,1.5-1.7,2.2l-0.6,0.8
					l-0.2,0.3l0.2,0.2l28.2,19.4l0.3,0.3l0.2-0.3l0.5-0.8c0.5-0.8,0.9-1.6,1.4-2.4c0.5-0.7,1.1-1.5,1.6-2.2l0.6-0.7l0.2-0.3
					l-0.3-0.2L175.8,219.7z"/>
				<path class="st0" d="M214.7,189.9c-4.2-1-8.4,0-12.5,2.9l-13.6,10.4l-0.3,0.3l0.2,0.3l20.3,27.4l0.2,0.3l0.3-0.2l11.1-8.6
					c4.3-3.2,7-7.5,7.6-12.3c0.7-4.6-0.6-9.3-3.8-13.7C221.6,193.1,218.3,190.8,214.7,189.9z M216.5,221.2l-3.1,2.4L197,201.4
					l3.6-2.7c2.7-2.1,5.4-3,8-2.6c2.8,0.4,5.8,2.5,8.5,6.2C223,210.2,222.8,216.4,216.5,221.2z"/>
				<path class="st0" d="M245.5,170.9l-0.2-0.2l-0.3,0.1c-0.6,0.3-1.1,0.6-1.7,0.7c-0.6,0.2-1.1,0.3-1.8,0.4l-0.3,0l0,0.3l-2.8,37.7
					l0,0.5l0.5-0.2c0.3-0.1,0.6-0.2,0.8-0.3c0.5-0.2,0.9-0.4,1.4-0.6c0.5-0.2,1-0.3,1.4-0.4c0.3,0,0.6-0.1,0.8-0.2l0.3-0.1v-0.3
					c-0.1-2.4-0.1-4.8,0-7.2l0.1-3.5l10.5-3.5c2.2,2.6,4.1,5.5,6.3,8.4l0.1,0.3l0.2,0.2l0.3-0.1l1-0.5c1-0.4,1.9-0.8,3-1.1
					c0.9-0.3,1.9-0.5,3-0.8l1.1-0.2l0.6-0.2l-0.4-0.4L245.5,170.9z M251.7,191.1l-7.6,2.5l0.7-11.1L251.7,191.1z"/>
				<path class="st0" d="M301,167.2c-2.9-3.1-7-4.4-12.1-4.2l-16.9,1.4l-0.4,0l0.1,0.4l2.8,34.2l0.1,0.4l0.3-0.1l13.8-1.2
					c5.2-0.4,9.6-2.6,12.7-6c3.2-3.7,4.6-8.5,4.2-14C305.1,173.6,303.6,169.8,301,167.2z M282.3,195l-2.3-27.7l4.5-0.4
					c3.5-0.3,6.2,0.4,8.2,2.1c2.2,1.9,3.6,5.1,4,9.7c0.8,10-2.5,15.2-10.4,15.9C286.2,194.7,283.4,194.9,282.3,195z"/>
				<path class="st0" d="M350.1,163.4l-16.9-1.9h-0.4l0,0.3l-3.7,34.1l0,0.3h0.4l13.8,1.6c5.3,0.6,10.2-0.7,14-3.6
					c3.6-3,5.8-7.3,6.4-12.6c0.5-4.4-0.3-8.5-2.4-11.6C358.8,166.4,355.1,164.1,350.1,163.4z M340.5,165.9l4.5,0.5
					c7.4,0.9,10.6,5.4,9.6,14c-1.1,10-5.5,14.4-13.2,13.5l-3.8-0.4L340.5,165.9z"/>
				<path class="st0" d="M392.4,189.6l0.2-0.4l0.3-0.4l-0.5-0.1c-2.2-0.4-4.1-1-5.8-1.6l-4.5-1.6l3.2-9.5c4.6,1.5,7.5,2.9,10.2,4.3
					l0.4,0.3l0.1-0.5l0.1-0.5c0.2-0.5,0.2-1.1,0.4-1.6c0.1-0.4,0.4-1,0.7-1.5l0.3-0.4l0.2-0.3l-0.4-0.1l-17.8-6.4L379,169l-0.1,0.3
					l-11.2,32.4l-0.1,0.4l0.3,0.1l17.9,6.3l0.3,0.1l0.1-0.4l0.1-0.5c0.1-0.5,0.2-1.1,0.4-1.5c0.2-0.6,0.4-1,0.7-1.5l0.3-0.5l0.2-0.4
					l-0.4-0.1c-3.2-0.7-6.5-1.6-10.7-3.1l3.9-11.4l4.6,1.6c1.8,0.6,3.6,1.4,5.6,2.4l0.4,0.2l0.1-0.4l0.1-0.5
					c0.1-0.5,0.2-1.1,0.3-1.6C391.9,190.6,392.2,190.1,392.4,189.6z"/>
				<path class="st0" d="M416.4,186.2c-0.8-0.4-1.6-0.9-2.4-1.4c-0.8-0.5-1.5-1.1-2.2-1.7l-0.8-0.6l-0.3-0.2l-0.2,0.3l-18.6,28.7
					l-0.2,0.3l0.3,0.3l15.7,10.5l0.3,0.2l0.1-0.4l0.3-0.5c0.2-0.5,0.4-1,0.7-1.4c0.3-0.4,0.7-0.9,1.1-1.3l0.3-0.3l0.3-0.4l-0.4-0.3
					c-3-1.6-6.1-3.3-9.6-5.5l16.5-25.4l0.2-0.3l-0.3-0.2L416.4,186.2z"/>
				<path class="st0" d="M447.6,248.8c2.4,0.8,5,0.5,7.9-1.1c5.1-2.6,6.1-7.4,2.9-13.9l-5.5-11.1l-0.2-0.3l-0.3,0.2L422,238.1
					l-0.3,0.2l0.2,0.3l0.6,0.8c0.4,0.8,0.9,1.7,1.3,2.4c0.5,0.8,0.8,1.8,1.1,2.6l0.3,0.8l0.1,0.4l0.4-0.2l13.1-6.6
					C441.7,244.6,444.3,247.7,447.6,248.8z M453.5,231.4l1.2,2.4c0.5,0.9,0.5,1.9,0.2,2.8c-0.5,1.5-1.9,2.9-3.8,3.9
					c-1.8,0.9-5.1,1.9-7.7-0.9c-0.5-0.7-1-1.6-1.5-2.4L453.5,231.4z"/>
				<path class="st0" d="M469.9,272.6l-0.1-0.3c-0.2-0.7-0.3-1.2-0.4-1.8c-0.1-0.6-0.1-1.3-0.1-1.9v-0.3H469l-36.1-9.4l-0.5-0.1
					l0.1,0.6c0,0.2,0.1,0.5,0.1,0.8c0.1,0.5,0.2,1,0.3,1.5c0.1,0.6,0.1,1,0.1,1.6c0,0.2,0,0.5,0.1,0.8v0.3h0.2
					c2.4,0.2,4.7,0.8,7,1.3l3.3,0.7l1.5,11.1c-2.9,1.8-6.1,3.2-9.4,4.8l-0.1,0.1l-0.3,0.1l0,0.3l0.3,1.1c0.2,1.1,0.5,2.1,0.6,3.2
					c0.2,1.1,0.2,2.1,0.3,3.2v1.1l0.1,0.6l0.5-0.3l32.2-18.7L469.9,272.6z M458.5,270.1l-9.6,5.4l-1.1-8.1L458.5,270.1z"/>
				<path class="st0" d="M442.1,323.2h0.1l4.3,0.6l0.3,0l0.1-0.3l0.2-0.7l0-0.2l-0.2-0.2c-2.4-2.1-4.2-5.4-4.6-8.3
					c-0.8-7.2,4.1-12.2,12.7-13.2c7.4-0.8,15.1,1.8,16,9.6c0.3,3-1.1,6.3-3.5,8.5l-0.2,0.2v0.2l0.2,0.7l0,0.2h0.2
					c0.7,0.1,1.3,0.2,2.1,0.3c1,0.1,2.1,0.2,3.2,0.3l0.3,0.1l0.1-0.3c1.2-3,1.7-7.1,1.3-10.7c-0.7-6.3-3.2-11.3-7.1-14.5
					c-3.8-3-8.6-4.2-14.3-3.6c-4.6,0.5-8.5,2.6-11.1,6c-3.1,3.9-4.4,9.3-3.7,15.1c0.2,2.7,1.1,6.5,3.3,9.8L442.1,323.2z"/>
				<path class="st0" d="M476.6,336.6c0,0.1,0-0.3,0-0.3l-0.3-1c-0.1-0.9-0.3-1.8-0.4-2.7c0-1,0-2,0-2.8v-1v-0.4h-0.4l-33.9,3.2
					l-0.4,0l0.1,0.4l0.1,0.9c0.2,0.9,0.3,1.9,0.5,2.8c0.1,1,0.1,1.9,0.1,2.8v1v0.4l0.3-0.1l34-3.2L476.6,336.6z"/>
				<path class="st0" d="M460.1,360.5c0.1,1.6,0.1,3.2,0,5v1.1v0.5l0.4-0.1l0.5-0.1c0.5-0.1,1-0.3,1.5-0.3c0.5,0,1.1,0,1.6,0.1h0.5
					l0.4,0.1l-0.1-0.5c-0.5-2.3-0.8-4.2-0.9-6c0,0-0.2-3.8-0.3-5l9.9-0.7c0.4,5.2,0.2,8.5,0.1,11.2v0.5l0.4-0.1l0.5-0.1
					c0.5-0.1,1.1-0.3,1.6-0.3c0.5-0.1,1.1,0,1.6,0l0.5,0l0.4,0l0-0.4l-1.4-19.2l0-0.3l-0.4,0.1l-34,2.5l-0.4,0.1v0.4l0.2,0.9
					c0.1,0.9,0.3,1.8,0.4,2.8c0.1,0.9,0.1,1.9,0.1,2.8v1l0,0.3l0.4-0.1l16-1.1L460.1,360.5z"/>
				<path class="st0" d="M445,382.4v0.9v0.4h0.3l34.1-1.8l0.3-0.1l0-0.4l-0.1-0.9c-0.1-0.9-0.3-1.8-0.3-2.8c-0.1-0.9,0-1.9,0-2.8
					l0-0.9l0-0.4h-0.4l-34,1.8h-0.4l0,0.4l0.1,1c0.2,0.8,0.3,1.8,0.3,2.8C445,380.5,445,381.4,445,382.4z"/>
				<path class="st0" d="M481.9,331c1.1,0.6,1.9,1.1,2.4,1.6c0.5,0.4,0.9,0.7,1,1c0.2,0.3,0.3,0.5,0.3,0.7c0.1,0.6,0,1.1-0.3,1.4
					c-0.3,0.4-0.7,0.6-1.1,0.7c-0.2,0-0.5,0-0.7-0.1c-0.2,0-0.6-0.3-1-0.7c-0.5-0.3-1-1-1.8-1.7c-0.7-0.8-1.7-2-2.9-3.4l-0.3-2.1
					C479.3,329.4,480.8,330.4,481.9,331z"/>
				<path class="st0" d="M473.6,417.8l-0.2,0.1v0.2l0.1,0.7v0.3l0.2,0.1c0.6,0.1,1.3,0.2,2,0.3c1.1,0.2,2.1,0.4,3.1,0.6l0.3,0.1
					l0.2-0.2c1.4-2.8,2.3-6.9,2.2-10.6c-0.3-9.9-5.5-20.2-19.7-20c-10.1,0.2-16.9,8.4-16.7,19.7c0.1,2.7,0.5,6.6,2.4,10.1l0.1,0.1
					l0.2,0.1l4.3,1l0.3,0.1l0.1-0.3l0.3-0.7l0.1-0.2l-0.2-0.2c-2.1-2.2-3.7-5.7-3.8-8.7c-0.1-3.1,0.9-5.8,2.8-7.8
					c2.4-2.6,6.3-4,11.1-4.2c5-0.1,9.4,1.4,12.1,4c1.9,1.8,2.9,4.2,3,7.1C477.9,412.6,476.2,415.8,473.6,417.8z"/>
				<path class="st0" d="M462.2,425.7c-5.4-0.3-10,1.3-13.3,4.4c-3.4,3.2-5.4,8-5.6,13.8c-0.3,6.1,1.5,11.4,5,15.3
					c3.1,3.5,7.5,5.5,12.3,5.7c8.7,0.3,18.3-4.3,18.8-18.2c0.3-6.2-1.4-11.5-4.9-15.3C471.5,427.9,467,425.9,462.2,425.7z
					 M475.8,446.2c-0.3,7.1-7.2,9.9-13.8,9.7c-7.1-0.3-15.4-3.5-15-11.6c0.1-2.6,1-4.8,2.8-6.4c2.3-2.2,6.2-3.4,10.5-3.2
					c6.3,0.2,10.8,1.8,13.3,4.5C475.2,441,475.9,443.4,475.8,446.2z"/>
			</g>
			<g>
				<path class="st0" d="M181.5,537.9l22.4-15.1l0.5-0.4l-0.3-0.5l-0.6-0.7c-0.5-0.7-1.1-1.4-1.5-2c-0.5-0.7-0.9-1.5-1.3-2.2
					l-0.4-0.7l-0.3-0.6l-0.5,0.4L174,533.4l-0.5,0.3l0.3,0.5l9.5,14.5l0.4,0.5l0.5-0.5l0.4-0.3c0.3-0.3,0.7-0.6,1.1-0.9
					c0.3-0.3,0.8-0.5,1.2-0.6l0.4-0.3l0.7-0.3l-0.5-0.6C185.6,543.5,183.6,540.9,181.5,537.9z"/>
				<path class="st0" d="M219.3,539.8l-0.5-0.4l-0.7-0.5c-0.7-0.5-1.3-1.1-1.9-1.7c-0.6-0.6-1.2-1.3-1.7-1.9l-0.5-0.7l-0.4-0.6
					l-0.5,0.5l-21.6,22.5l-0.4,0.4l0.4,0.4l0.7,0.6c0.6,0.5,1.3,1.1,1.9,1.7c0.6,0.5,1,1.2,1.6,1.9l0.6,0.7l0.4,0.5l0.4-0.4
					l21.6-22.6L219.3,539.8z"/>
				<path class="st0" d="M250,560.8l0.3-0.6l-0.6-0.3l-0.4-0.1c-0.5-0.2-0.9-0.4-1.4-0.6c-0.3-0.2-0.7-0.5-1-0.8
					c-0.2-0.1-0.3-0.2-0.4-0.3l-0.3-0.3l-0.3,0.3c-5.1,3.9-10.2,7.2-15.1,10.4l-3.5,2.4v-0.5c0.4-7.4,0.8-14.9,1.4-22.2l0-0.5
					l-0.4-0.1c-0.2-0.1-0.4-0.1-0.5-0.2c-0.4-0.2-0.9-0.3-1.2-0.6c-0.3-0.2-0.6-0.5-1-0.8c-0.2-0.1-0.3-0.2-0.4-0.3l-0.5-0.4
					l-0.3,0.5c-6.8,9-13.3,17.7-19.3,25l-0.5,0.5l0.7,0.3c0.2,0.1,0.4,0.2,0.6,0.3c0.5,0.1,0.8,0.2,1.2,0.6c0.4,0.2,0.7,0.5,1.2,0.8
					l0.4,0.4l0.5,0.4l0.3-0.6c2.9-4.8,6.1-9.5,10.6-15.6l-0.4,7c-0.2,5-0.5,9.6-0.9,14l-0.1,0.4l0.5,0.2c0.5,0.1,0.8,0.4,1.3,0.7
					l0.3,0.3l0.4-0.3c5.9-4.3,11.7-8.3,17.4-12.2l-1.7,3.8c-1.9,4.6-3.9,9.3-6.2,13.9l-0.2,0.5l0.5,0.3l1,0.4
					c0.8,0.4,1.5,0.8,2.3,1.2c0.7,0.5,1.4,1,2.3,1.5l0.8,0.6l0.6,0.4l0.2-0.6c2.7-7.5,6-15.4,9.8-24.6L250,560.8z"/>
				<path class="st0" d="M270.3,565.7v-0.4l-0.5-0.1c-0.5,0-1.1-0.1-1.6-0.2c-0.5-0.1-1-0.3-1.5-0.6l-0.4-0.2l-0.2,0.4l-20.4,27.5
					l-0.5,0.7l0.8,0.2c0.2,0.1,0.5,0.1,0.7,0.1c0.5,0.1,0.9,0.2,1.4,0.4c0.4,0,0.8,0.2,1.2,0.4c0.2,0.1,0.5,0.1,0.7,0.2l0.4,0.1
					l0.2-0.5c1.1-1.9,2.3-3.6,3.5-5.5l1.6-2.5l9.4,2.5c0.4,3.1,0.6,6.1,0.8,9.5v0.2v0.5l0.4,0l1.1,0.2c0.9,0.3,1.8,0.3,2.7,0.6
					c0.9,0.2,1.8,0.6,2.7,0.9l1,0.4l0.9,0.2l-0.1-0.9L270.3,565.7z M264.9,584.1l-6.4-1.7l5.4-7.4L264.9,584.1z"/>
				<polygon class="st0" points="300.4,588.9 299.9,588.9 299.9,589.5 299.7,594.3 299.7,595 300.3,595 311.5,595.3 312.1,595.3 
					312.1,594.8 312.3,589.9 312.3,589.3 311.7,589.3 				"/>
				<path class="st0" d="M357.2,570.9c-2-1.5-4.7-2.1-8.5-1.6l-11,1.4l-0.5,0l0,0.6l3.8,31.2l0.1,0.6l0.7-0.1l0.8-0.1
					c0.8-0.2,1.7-0.4,2.5-0.5c0.8-0.1,1.6-0.1,2.4-0.2h0.9l0.6,0l-0.1-0.6l-1.6-13.1c7-1,13.7-3.2,12.6-12.2
					C359.6,573.9,358.7,572.1,357.2,570.9z M346.9,584.7l-1.5-11.3l2.3-0.2c2.1-0.3,3.9,1.8,4.3,5c0.2,1.7,0.1,4.8-2.9,6.1
					C348.4,584.5,347.6,584.5,346.9,584.7z"/>
				<path class="st0" d="M389.8,591.7c-0.2-0.5-0.4-0.9-0.5-1.4c-0.2-0.4-0.2-0.9-0.3-1.4l-0.1-0.4l-0.1-0.8l-0.7,0.3
					c-2.6,1.2-5.5,2.2-9.2,3.4l-2.9-10.1l4-1.2c1.6-0.5,3.3-0.9,5.4-1.2l0.7-0.1l-0.3-0.7l-0.2-0.5c-0.2-0.4-0.5-0.9-0.5-1.3
					c-0.1-0.4-0.2-1-0.3-1.5l0-0.4l-0.1-0.7l-0.7,0.3c-1.8,0.8-3.5,1.4-5.1,1.9c0,0-2.8,0.8-3.9,1.2l-2.4-8.4
					c3.9-1.2,6.8-1.6,9.5-2.1l0.8-0.1l-0.3-0.7l-0.1-0.4c-0.2-0.4-0.5-0.9-0.6-1.3c-0.1-0.5-0.2-0.9-0.3-1.5l0-0.4l0-0.7l-0.7,0.2
					l-16.5,4.8l-0.5,0.2l0.2,0.6l8.6,29.9l0.1,0.6l0.6-0.2l16.5-4.8l0.5-0.2l-0.2-0.6L389.8,591.7z"/>
				<path class="st0" d="M418.7,575l-2.8-1.6c-3.2-1.8-6.4-3.7-9.6-5.7c3.2-3,4-7,2.1-10.8c-1.4-2.9-3.8-4.4-7-4.4
					c-2.1,0-4.8,1.5-6.8,2.5l-0.4,0.2l-8.5,4.5l-0.5,0.3l0.3,0.5l14.4,27.9l0.2,0.5l0.5-0.3l0.8-0.4c0.6-0.4,1.4-0.9,2.1-1.3
					c0.7-0.5,1.5-0.7,2.3-1l0.8-0.3l0.6-0.3l-0.3-0.5l-6-11.6l0.9,0.6c1,0.7,2.1,1.3,2.7,1.8l9.2,6l0.3,0.2l0.3-0.2l0.9-0.6
					c0.8-0.5,1.7-1.1,2.6-1.6c0.9-0.5,1.9-0.9,2.8-1.3l1-0.5l1-0.4l-1-0.6L418.7,575z M399,569.6l-5.1-9.8l0.1,0
					c2.7-1.5,4.6-2.3,6.3,0c0.7,0.7,1,1.3,1.2,1.8c1,1.9,1.3,3.7,0.8,5C401.8,567.7,400.7,568.8,399,569.6z"/>
				<path class="st0" d="M440,540.6l-0.4-0.3l-11.3-11.7l-0.4-0.5l-0.5,0.6c-0.4,0.5-0.7,0.9-1.1,1.3c-0.4,0.5-0.8,0.8-1.3,1.1
					l-0.6,0.4l0.5,0.5l9.7,9.9c1.4,1.4,5,5.2,5.8,7.1c1.5,3.7,1.1,6.2-1.8,9.1c-1.4,1.3-2.9,2.1-4.6,2.1c-2,0-3.2-0.6-5-2
					c-1.6-1.1-3.6-3.3-5.3-5l-0.8-0.9l-9-9.2l-0.4-0.4l-0.4,0.5l-0.5,0.6c-0.6,0.7-1.1,1.3-1.7,1.9c-0.5,0.6-1.2,1.1-1.8,1.6
					l-0.7,0.6l-0.5,0.4l0.4,0.4l13,13.4c1.4,1.4,3.1,2.7,4.5,3.6c6.3,3.6,12.3-0.9,15.3-3.9c2.5-2.5,4.1-5.3,4.6-8.1
					C446.7,547.8,443.5,544.3,440,540.6z"/>
				<path class="st0" d="M413.2,529.2c-0.3-2-0.5-3.4-0.5-4.4c0-1,0-1.7,0.1-2.2c0.1-0.4,0.3-0.7,0.6-1c0.6-0.7,1.2-1.1,1.9-1.1
					c0.7,0,1.3,0.2,1.8,0.6c0.3,0.3,0.5,0.6,0.7,0.9c0.1,0.3,0.3,1,0.2,1.9c0,0.9-0.1,2.1-0.4,3.9c-0.2,1.7-0.5,4-1,6.9l-2,2.4
					C414,533.8,413.5,531.2,413.2,529.2z"/>
			</g>
			<path class="st0" d="M504.5,300c-4.2-26.1-8.7-44.9-14.8-61.7c-14.8-41.5-38.5-70.5-72.3-88.5c-27.3-14.7-66-21.7-111.7-20.3
				l-3,0.1c-15.9,0.4-42.4,1-73.8,11.5c-10.6,3.2-19.1,7.9-29.1,13.8c-21.7,12.6-38.7,30.2-51.9,53.8
				c-10.8,19.4-18.8,42.3-23.9,68.2c-2.1,10.7-3.8,23-5.3,39.8c-2.2,36.3-2.8,67.9-1.7,96.8c1.9,77.5,20.5,135.3,55.1,171.8
				c18.5,19.1,38.5,31.6,62.7,39.2c22.6,7.1,49.6,10.3,84.8,9.9c31.6-1,64.8-3.8,94-18c14.5-7.1,27.4-16.4,38.2-27.7
				c22-23.2,39.7-56.6,47.2-89.2C514.2,434,509,346.3,504.5,300z M483.5,493.8c-7.2,31.6-24.1,63.8-43.2,82.2
				c-11.6,11.3-22.8,19.6-34.3,25.2c-26.5,13.1-57.4,15.7-86.7,16.6c-29.5-0.2-53-1.8-78.8-8.9c-24.8-8.3-40.2-17.7-56.5-34.7
				c-13-13.6-22.6-29.4-31.1-51.4c-11.6-29.8-18-67.2-19.1-110.9c-1-27.7-0.5-58.1,1.6-93c3.8-42.2,12.6-75.3,26.8-101.1
				c11.8-21.4,27-37.3,46.4-48.8c7.3-4.3,16.2-9.2,26.1-12.2c29.2-9.1,51.3-9.8,65.9-10.3l4.8-0.1c43.2-1.3,80.8,5.2,103.2,18
				c31.1,16.8,52.6,43,65.8,80.4c6.4,18.1,10.1,38.8,13.3,58.5C493,358.4,496.6,436.4,483.5,493.8z"/>
			<path class="st0" d="M433.9,369.1c-0.2-8.3-0.4-17-0.9-25.6c-2.8-37.2-6.2-69.8-19.8-93.7c-24.6-42.1-75.3-42.1-99.8-42.2
				c0,0-5.2,0-5.3,0c-52.7,0.7-84.4,16.5-99.8,49.9c-14.2,30.7-15.3,70.1-16.2,104.9c0,63.8,1.1,108.2,17,143.4
				c22.4,46.9,69.8,51.8,113.2,50.5c31-1.8,46.9-4.1,70-18.5c10.9-7.9,19.2-17.7,25.5-30.2c4.9-10.9,8.6-23.4,10.9-37
				c4.2-23.9,4.9-49.8,5.5-72.7l0.3-11.1C434.4,386.5,433.9,369.1,433.9,369.1z M423.5,386.6c0-0.2-0.3,13-0.3,13
				c-0.4,21-1,44.8-4.6,67.4c-4.9,29.8-15.1,49-33.1,62.1c-21.1,13.5-36.6,14.9-64.3,16.6c-41.9,1.1-83.5-3.9-103.1-46.3
				c-14.5-34.4-15.6-78.2-15.6-136.3v-0.6c0.9-34.5,1.9-70.3,14.8-98.7c13-30.6,42-45.1,90.9-45.7l5.7,0.1
				c24-0.1,68.5-0.1,90.4,37.9c13,23.2,15.6,58.2,17.9,89.1c0.7,9.1,0.9,18.1,1,26.8C423.3,377.1,423.3,381.9,423.5,386.6z"/>
			<g>
				<g>
					<polygon class="st0" points="288.5,310.5 298.8,287 286.9,295.7 284.9,282.8 278.6,293.2 274.1,280.7 269.7,293.1 262.3,283.2 
						261.5,295.6 249.6,286.8 259.8,310.5 					"/>
					<polygon class="st0" points="365.6,310.5 376,287 364.1,295.7 362.1,282.8 355.8,293.2 351.3,280.7 346.8,293.1 339.5,283.2 
						338.6,295.6 326.7,286.8 337,310.5 					"/>
				</g>
				<polygon class="st0" points="327.1,268.3 337.5,244.9 325.5,253.6 323.6,240.7 317.2,251 312.7,238.5 308.3,251 300.9,241.1 
					300,253.4 288.2,244.6 298.4,268.3 				"/>
			</g>
		</g>
		<rect x="588.8" y="119.3" class="st0" width="5.5" height="528.8"/>
		<g>
			<g>
				<path class="st0" d="M247,754v-35.1c2.2,0.3,4.3,0.5,6.1,0.5c1.9,0,4-0.2,6.3-0.5v31.7c0,2.9,0.2,5.6,0.7,8.2
					c0.5,2.6,1.1,4.5,2,5.9c2.8,4.2,6.8,6.3,12,6.3c2.9,0,5.3-0.4,7.1-1.3c1.9-0.9,3.5-2.3,5.1-4.3c1.6-2.3,2.6-5,3.1-8.1
					c0.4-3.2,0.6-6.6,0.6-10.4v-27.9c0.4,0,0.9,0.1,1.7,0.2c0.7,0.1,1.3,0.1,1.6,0.2c0.4-0.1,0.9-0.1,1.7-0.2
					c0.7-0.1,1.3-0.1,1.7-0.2v30c0,4.9-0.4,9.1-1.2,12.6c-0.8,3.5-2.3,6.3-4.6,8.4c-1.6,1.5-3.3,2.7-5,3.7c-1.7,1-3.6,1.7-5.9,2.3
					c-2.2,0.5-4.8,0.8-7.8,0.8c-8.7,0-15.3-2.3-19.9-6.8C248.8,766,247,760.7,247,754z"/>
				<path class="st0" d="M322.4,775.4v-56.5h8.3c2.4,2.7,5.2,5.7,8.3,9.1s6.3,6.8,9.6,10.2c3.3,3.4,6.3,6.8,9.3,10
					c2.9,3.2,5.7,6.3,8.4,9.4v-38.7c0.4,0.1,0.9,0.1,1.6,0.2c0.7,0.1,1.2,0.1,1.6,0.2c0.4-0.1,1-0.1,1.7-0.2
					c0.7-0.1,1.3-0.1,1.7-0.2v56.7l-6.9-0.2c-9.2-10.2-16.2-17.9-20.9-23c-4.7-5.2-10.1-10.8-16-16.9v39.9c-0.5-0.1-1.1-0.1-1.9-0.2
					c-0.8-0.1-1.4-0.1-1.8-0.2c-0.3,0.1-0.7,0.1-1.4,0.2C323.3,775.3,322.8,775.4,322.4,775.4z"/>
				<path class="st0" d="M398.8,718.9c1.3,0.1,3.4,0.3,6.1,0.5c2.7-0.2,4.8-0.4,6.1-0.5v56.7c-2.2-0.3-4.3-0.5-6.4-0.5
					c-1.8,0-3.8,0.2-5.8,0.5V718.9z"/>
				<path class="st0" d="M431.7,718.9c1.7,0.1,4.1,0.3,7.2,0.5c3.5-0.2,5.9-0.4,7.3-0.5c1.3,4.5,2.7,8.8,4.2,12.9
					c1.5,4.1,3.3,8.9,5.4,14.5c2.1,5.6,3.8,10.1,5.1,13.5c1.2-3,2.6-6.5,4.2-10.4c1.6-4,2.9-7.4,4-10.2c1.1-2.8,2.3-6.1,3.6-9.7
					c1.3-3.7,2.5-7.2,3.6-10.5c0.4,0.1,1,0.1,1.9,0.2c0.8,0.1,1.4,0.1,1.9,0.2c0.4-0.1,1.1-0.1,1.9-0.2c0.8-0.1,1.4-0.1,1.9-0.2
					c-1.9,4.5-4,9.5-6.3,14.9c-2.3,5.5-4.3,10.2-6.1,14.3c-1.7,4.1-3.5,8.5-5.3,13.2c-1.8,4.7-3.6,9.4-5.3,14.3
					c-1.3-0.3-2.5-0.5-3.6-0.5c-1,0-2.1,0.2-3.4,0.5c-1.8-5-3.7-10-5.6-15.1c-1.9-5.1-3.8-9.9-5.5-14.3c-1.7-4.4-3.5-9-5.4-13.7
					C435.4,727.8,433.5,723.3,431.7,718.9z"/>
				<path class="st0" d="M503.3,775.1v-56.2h31.6c-0.2,0.8-0.4,2.1-0.7,3.7c0.1,0.8,0.3,1.9,0.5,3.4c-5.6-0.7-11.1-1.1-16.2-1.1
					h-2.7v17.6h10.7c3.2,0,5.9-0.2,7.9-0.7c-0.1,0.8-0.2,1.6-0.3,2.2c-0.1,0.7-0.2,1.2-0.2,1.7c0.2,1.1,0.4,2.2,0.5,3.4
					c-2.6-0.5-5.9-0.8-10-0.8h-8.7v20.9c6.5,0,12.9-0.4,19.1-1.1c-0.3,1.5-0.5,2.8-0.7,3.9c0.2,0.9,0.4,2,0.5,3.2H503.3z"/>
				<path class="st0" d="M555.9,775.6v-56.7h20.8c3.9,0,6.8,0.3,8.7,1c1.9,0.7,3.7,1.8,5.4,3.5c2.3,2.1,3.4,5,3.4,8.8
					c0,4.6-1.3,8-3.9,10.3s-5.6,3.9-8.9,4.7c2,3.3,3.7,6.2,5.3,8.7c1.6,2.5,3.8,5.9,6.6,10.4c2.9,4.5,4.8,7.6,5.9,9.3
					c-2.7-0.3-5.2-0.5-7.4-0.5c-2.2,0-4.8,0.2-7.6,0.5c-1.6-2.8-3.5-6.2-5.7-10.2c-2.2-3.9-4-7-5.2-9.3c-1.3-2.2-2.7-4.6-4.2-7.1
					h-0.6v26.6c-2.4-0.3-4.5-0.5-6.2-0.5C560.5,775.1,558.4,775.3,555.9,775.6z M568.3,745.5c0.4,0.1,1.1,0.1,1.9,0.1
					c7.3,0,11-3.9,11.1-11.7c0-3-0.5-5.3-1.4-6.8c-0.9-1.5-2.1-2.5-3.5-3s-3.2-0.7-5.2-0.7h-2.9V745.5z"/>
				<path class="st0" d="M617.5,762.5h1.7c0.6,2.6,1.9,4.8,3.8,6.4c1.9,1.6,4.4,2.5,7.7,2.6c2.7,0,5-0.8,6.8-2.4
					c1.8-1.6,2.7-3.6,2.7-6.1c0-2.3-0.8-4.3-2.4-6c-1.6-1.7-4.4-3.3-8.4-5c-3.1-1.3-5.6-2.7-7.5-4.2c-2-1.5-3.5-3.3-4.5-5.4
					c-1.1-2.1-1.6-4.6-1.6-7.6c0-3.1,0.7-6,2.1-8.7c1.4-2.6,3.5-4.8,6.4-6.4c2.9-1.6,6.5-2.4,10.8-2.4c2.4,0,4.8,0.4,7.2,1.1
					c2.4,0.7,4.3,1.7,5.6,2.8c-0.4,1.3-0.9,2.6-1.3,4c-0.5,1.4-0.9,2.8-1.3,4.1h-1.2c-0.6-2-1.7-3.6-3.4-5c-1.6-1.4-3.6-2.1-6-2.1
					c-6.1,0-9.1,2.7-9.1,8.2c0,3.1,2.4,5.9,7.2,8.3l6.1,3c4.5,2.2,7.7,4.7,9.3,7.6c1.7,2.9,2.5,6,2.5,9.3c-0.1,2.9-0.7,5.4-2,7.6
					c-1.2,2.2-2.9,4.1-5,5.6c-2.1,1.5-4.5,2.7-7.1,3.4c-2.6,0.8-5.3,1.1-8,1.1c-5.2-0.2-9.6-1.3-13.2-3.5
					C616.3,769.4,617.1,765.9,617.5,762.5z"/>
				<path class="st0" d="M672.2,718.9c1.3,0.1,3.4,0.3,6.1,0.5c2.7-0.2,4.8-0.4,6.1-0.5v56.7c-2.2-0.3-4.3-0.5-6.4-0.5
					c-1.8,0-3.8,0.2-5.8,0.5V718.9z"/>
				<path class="st0" d="M710.7,775.1v-56.2h28c4.4,0,8.5,1,12.3,2.9c3.8,1.9,6.9,4.9,9.2,8.9c2.3,4,3.5,8.7,3.5,14.4
					c0,5.8-1.2,10.9-3.5,15.5c-2.3,4.6-5.8,8.1-10.5,10.7c-4.7,2.6-10.3,3.9-17,3.9H710.7z M722.9,770.2h7.6
					c13,0,19.6-8.2,19.6-24.7c0-7.9-1.7-13.6-5.2-16.8c-3.5-3.3-8-4.9-13.6-4.9h-8.4V770.2z"/>
				<path class="st0" d="M780.5,775.4l23.5-57.3c0.5,0.1,0.9,0.1,1.5,0.1c0.5,0,1,0.1,1.6,0.1c1.9-0.1,2.9-0.2,3.2-0.2l23,57.3
					c-0.9-0.1-2.2-0.1-3.8-0.2c-1.6-0.1-2.8-0.1-3.7-0.2c-0.7,0.1-1.8,0.1-3.3,0.2c-1.5,0.1-2.6,0.1-3.4,0.2
					c-1.7-5.7-3.6-11.3-5.8-17.1H794c-0.3,0.9-1,2.7-2,5.6c-1,2.9-1.8,5.1-2.4,6.7c-0.6,1.6-1,3.2-1.4,4.8c-0.5-0.1-1.1-0.1-2-0.2
					c-0.9-0.1-1.6-0.1-2.1-0.2c-0.3,0.1-0.9,0.1-1.7,0.2C781.5,775.3,780.9,775.4,780.5,775.4z M811.4,753.1L804,734l-7.7,19.1
					H811.4z"/>
				<path class="st0" d="M853.1,775.1v-56.2h28c4.4,0,8.5,1,12.3,2.9c3.8,1.9,6.9,4.9,9.2,8.9c2.3,4,3.5,8.7,3.5,14.4
					c0,5.8-1.2,10.9-3.5,15.5c-2.3,4.6-5.8,8.1-10.5,10.7c-4.7,2.6-10.3,3.9-17,3.9H853.1z M865.3,770.2h7.6
					c13,0,19.6-8.2,19.6-24.7c0-7.9-1.7-13.6-5.2-16.8c-3.5-3.3-8-4.9-13.6-4.9h-8.4V770.2z"/>
				<path class="st0" d="M963.3,775.1v-56.2h28c4.4,0,8.5,1,12.3,2.9c3.8,1.9,6.9,4.9,9.2,8.9c2.3,4,3.5,8.7,3.5,14.4
					c0,5.8-1.2,10.9-3.5,15.5c-2.3,4.6-5.8,8.1-10.5,10.7s-10.3,3.9-17,3.9H963.3z M975.5,770.2h7.6c13,0,19.6-8.2,19.6-24.7
					c0-7.9-1.7-13.6-5.2-16.8c-3.5-3.3-8-4.9-13.6-4.9h-8.4V770.2z"/>
				<path class="st0" d="M1038.3,775.1v-56.2h31.6c-0.2,0.8-0.4,2.1-0.7,3.7c0.1,0.8,0.3,1.9,0.5,3.4c-5.7-0.7-11.1-1.1-16.2-1.1
					h-2.7v17.6h10.7c3.2,0,5.9-0.2,7.9-0.7c-0.1,0.8-0.2,1.6-0.3,2.2c-0.1,0.7-0.2,1.2-0.2,1.7c0.2,1.1,0.4,2.2,0.5,3.4
					c-2.6-0.5-5.9-0.8-10-0.8h-8.7v20.9c6.5,0,12.9-0.4,19.1-1.1c-0.3,1.5-0.5,2.8-0.7,3.9c0.2,0.9,0.4,2,0.5,3.2H1038.3z"/>
				<path class="st0" d="M1091.3,718.9c2.2,0.1,4.2,0.3,6.1,0.5c0.2,0,1-0.1,2.5-0.2s2.7-0.2,3.8-0.3v50.3c5.4,0,11.7-0.4,19-1.1
					c-0.2,0.9-0.5,2.2-0.7,3.7c0.2,1,0.4,2.1,0.5,3.4h-31.2V718.9z"/>
				<path class="st0" d="M1178,775.4v-56.5h20.8c5.8,0,10.2,1.3,13.2,3.9c2.5,2.2,3.9,5.6,4,10.1c0,4.5-1.1,8.1-3.2,10.6
					c-2.1,2.5-4.7,4.3-7.6,5.3c-3,1-5.9,1.5-8.7,1.6c-2.9,0.1-4.9,0.2-6,0.2v24.8c-0.8-0.1-1.9-0.1-3.2-0.2
					c-1.4-0.1-2.4-0.1-3.2-0.2c-0.7,0.1-1.6,0.1-2.9,0.2C1179.8,775.3,1178.7,775.4,1178,775.4z M1190.5,746.1c2.5,0,4.7-0.3,6.5-1
					c1.8-0.6,3.3-1.8,4.4-3.6c1.1-1.7,1.7-4.1,1.8-7.2c0-2.5-0.4-4.6-1.2-6.3c-0.8-1.6-1.8-2.8-3-3.6c-1.2-0.7-2.2-1.1-3.2-1.1h-5.3
					V746.1z"/>
				<path class="st0" d="M1230.8,775.4l23.5-57.3c0.5,0.1,0.9,0.1,1.5,0.1c0.5,0,1,0.1,1.6,0.1c1.9-0.1,2.9-0.2,3.2-0.2l23,57.3
					c-0.9-0.1-2.2-0.1-3.8-0.2c-1.6-0.1-2.8-0.1-3.7-0.2c-0.7,0.1-1.8,0.1-3.3,0.2c-1.5,0.1-2.6,0.1-3.4,0.2
					c-1.7-5.7-3.6-11.3-5.8-17.1h-19.3c-0.3,0.9-1,2.7-2,5.6s-1.8,5.1-2.4,6.7c-0.5,1.6-1,3.2-1.4,4.8c-0.5-0.1-1.1-0.1-2-0.2
					c-0.9-0.1-1.6-0.1-2.1-0.2c-0.3,0.1-0.9,0.1-1.7,0.2C1231.8,775.3,1231.2,775.4,1230.8,775.4z M1261.7,753.1l-7.4-19.1
					l-7.7,19.1H1261.7z"/>
				<path class="st0" d="M1298.4,749c0.1-8.3,2-14.8,5.6-19.5c3.6-4.7,7.9-7.9,12.7-9.6c4.8-1.7,9.5-2.5,14-2.5
					c4,0,7.6,0.4,10.8,1.3c3.2,0.9,5.4,1.8,6.8,2.7c-0.6,2.2-1.3,5.1-2,8.5h-1.1c-1.8-2.5-3.9-4.4-6.3-5.7c-2.4-1.3-4.9-1.9-7.4-1.9
					c-3.7,0-7,1-9.9,3c-2.9,2-5.3,4.9-6.9,8.8c-1.7,3.8-2.5,8.3-2.5,13.5c0,4.6,0.7,8.7,2.2,12.3c1.5,3.6,3.7,6.4,6.7,8.5
					c3,2.1,6.6,3.1,10.9,3.1c2.4,0,5-0.5,7.7-1.7c2.8-1.1,5-2.6,6.9-4.4l1.2,0.5l-1.9,7.1c-4.2,2.4-9.6,3.5-16.3,3.5
					c-4.8,0-9.1-0.7-13-2.2c-3.9-1.5-7.2-3.5-9.9-6c-2.7-2.6-4.8-5.5-6.2-8.8C1299.1,756.2,1298.4,752.7,1298.4,749z"/>
				<path class="st0" d="M1368.6,713.6l11-12.7c1.2-1.7,2.8-2.6,4.6-2.6c2.7,0,4,1.3,4,3.8c0,1.3-0.9,2.5-2.6,3.7l-12.5,7.7H1368.6z
					 M1370.6,718.9c1.3,0.1,3.4,0.3,6.1,0.5c2.7-0.2,4.8-0.4,6.1-0.5v56.7c-2.2-0.3-4.3-0.5-6.4-0.5c-1.8,0-3.8,0.2-5.8,0.5V718.9z"
					/>
				<path class="st0" d="M1408.5,775.6v-56.7h31.4c-0.2,1.3-0.3,2.5-0.5,3.5c0.2,1.1,0.3,2.2,0.5,3.5c-6.2-0.7-12.5-1.1-19-1.1v17.6
					h8.8c4.3,0,7.6-0.2,9.8-0.7c0,0.3-0.1,0.8-0.2,1.7c-0.1,0.8-0.2,1.5-0.3,2.1c0.3,1.7,0.4,2.8,0.5,3.5c-2.7-0.4-5.4-0.6-8.2-0.7
					c-2.8-0.1-6.3-0.1-10.5-0.1v27.4c-2.6-0.3-4.7-0.5-6.3-0.5C1413,775.1,1411,775.3,1408.5,775.6z"/>
				<path class="st0" d="M1462.5,718.9c1.3,0.1,3.4,0.3,6.1,0.5c2.7-0.2,4.8-0.4,6.1-0.5v56.7c-2.2-0.3-4.3-0.5-6.4-0.5
					c-1.8,0-3.8,0.2-5.8,0.5V718.9z"/>
				<path class="st0" d="M1495.9,749c0.1-8.3,2-14.8,5.6-19.5c3.6-4.7,7.9-7.9,12.7-9.6c4.8-1.7,9.5-2.5,14-2.5
					c4,0,7.6,0.4,10.8,1.3c3.2,0.9,5.4,1.8,6.8,2.7c-0.6,2.2-1.3,5.1-2,8.5h-1.1c-1.8-2.5-3.9-4.4-6.3-5.7c-2.4-1.3-4.9-1.9-7.4-1.9
					c-3.7,0-7,1-9.9,3c-2.9,2-5.3,4.9-6.9,8.8c-1.7,3.8-2.5,8.3-2.5,13.5c0,4.6,0.7,8.7,2.2,12.3c1.5,3.6,3.7,6.4,6.7,8.5
					c3,2.1,6.6,3.1,10.9,3.1c2.4,0,5-0.5,7.7-1.7c2.8-1.1,5-2.6,6.9-4.4l1.2,0.5l-1.9,7.1c-4.2,2.4-9.6,3.5-16.3,3.5
					c-4.8,0-9.1-0.7-13-2.2c-3.9-1.5-7.2-3.5-9.9-6c-2.7-2.6-4.8-5.5-6.2-8.8C1496.6,756.2,1495.9,752.7,1495.9,749z"/>
				<path class="st0" d="M1563.5,747.2c0.1-3.6,0.8-7.1,2-10.6c1.2-3.5,3.1-6.6,5.6-9.6c2.5-2.9,5.8-5.2,9.8-7
					c4-1.8,8.8-2.6,14.3-2.6c5.3,0,9.9,0.8,13.9,2.3c4,1.6,7.3,3.7,9.9,6.4c2.6,2.7,4.5,5.8,5.8,9.4c1.3,3.5,1.9,7.3,1.9,11.3
					c0,4.6-0.8,8.7-2.4,12.3c-1.6,3.6-3.9,6.7-6.9,9.2c-3,2.5-6.4,4.5-10.3,5.8c-3.9,1.4-8.2,2.1-12.9,2.4c-4.2,0-8.6-0.8-13.3-2.4
					c-4.7-1.6-8.7-4.5-12.2-8.8c-3.5-4.2-5.2-9.9-5.3-17C1563.4,748,1563.5,747.7,1563.5,747.2z M1612.8,745.3c0-4.5-0.7-8.5-2.1-12
					c-1.4-3.5-3.4-6.2-6-8.2c-2.6-2-5.6-2.9-9-2.9h-0.2c-6.3,0.1-10.9,2.7-13.9,7.7c-3,5-4.5,11.6-4.5,19.6c0.1,4.6,1,8.5,2.5,11.9
					c1.5,3.3,3.6,5.8,6.2,7.5c2.6,1.7,5.4,2.5,8.4,2.5c4.8,0,8.5-1.5,11.3-4.4c2.8-3,4.7-6.4,5.7-10.4
					C1612.3,752.7,1612.8,748.9,1612.8,745.3z"/>
			</g>
		</g>
	</g>
	<g>
		<path class="st0" d="M693.5,295.7c0.2-14.3,3.3-25.6,9.5-33.8c6.1-8.2,13.2-13.7,21.3-16.6c8.1-2.9,15.9-4.4,23.5-4.4
			c6.8,0,12.8,0.8,18.1,2.3c5.3,1.5,9.1,3.1,11.4,4.7c-1,3.9-2.1,8.8-3.3,14.7h-1.8c-3.1-4.4-6.6-7.6-10.6-9.8
			c-4-2.2-8.2-3.3-12.4-3.3c-6.2,0-11.7,1.7-16.7,5.2c-5,3.5-8.9,8.6-11.7,15.2c-2.8,6.6-4.3,14.5-4.3,23.5c0,8,1.3,15.1,3.8,21.3
			c2.5,6.2,6.3,11.1,11.3,14.7c5,3.6,11.2,5.3,18.4,5.3c4,0,8.4-1,13-2.9c4.6-1.9,8.5-4.5,11.6-7.7l2,0.8l-3.2,12.3
			c-7,4.1-16.2,6.1-27.5,6.1c-8,0-15.3-1.3-21.8-3.8c-6.5-2.5-12-6-16.6-10.5c-4.5-4.4-8-9.6-10.4-15.4
			C694.7,308,693.5,302,693.5,295.7z"/>
		<path class="st0" d="M791.6,340.9v-97.6h53.1c-0.3,1.4-0.7,3.6-1.1,6.4c0.2,1.4,0.5,3.4,0.8,5.9c-9.5-1.2-18.6-1.9-27.3-1.9h-4.6
			v30.6h18c5.5,0,9.9-0.4,13.4-1.3c-0.2,1.4-0.3,2.7-0.5,3.9c-0.1,1.1-0.3,2.1-0.4,2.9c0.3,1.9,0.6,3.8,0.8,5.9
			c-4.4-1-10-1.4-16.8-1.4h-14.6v36.3c10.9,0,21.7-0.7,32.2-2c-0.5,2.6-0.9,4.9-1.1,6.7c0.3,1.6,0.6,3.5,0.8,5.6H791.6z"/>
		<path class="st0" d="M859.7,341.4v-98.1h13.9c4,4.6,8.7,9.9,14,15.7c5.3,5.8,10.6,11.8,16.1,17.7c5.5,6,10.7,11.7,15.6,17.3
			c4.9,5.5,9.6,11,14.1,16.4v-67.1c0.7,0.1,1.6,0.2,2.7,0.3c1.2,0.1,2.1,0.2,2.7,0.3c0.7-0.1,1.6-0.2,2.8-0.3
			c1.2-0.1,2.2-0.2,2.8-0.3v98.5l-11.7-0.3c-15.5-17.7-27.2-31-35.1-39.9c-8-9-16.9-18.7-26.9-29.3v69.2c-0.8-0.1-1.8-0.2-3.2-0.3
			c-1.3-0.1-2.4-0.2-3.1-0.3c-0.5,0.1-1.2,0.2-2.3,0.3C861.2,341.2,860.3,341.3,859.7,341.4z"/>
		<path class="st0" d="M982.6,341.4v-88c-9.3,0-18,0.7-26,2.2c0-0.8,0.1-1.9,0.2-3c0.1-1.2,0.2-2,0.2-2.6c0-0.7-0.1-1.7-0.2-3.2
			c-0.1-1.5-0.2-2.6-0.2-3.5h71.5c-0.2,2.2-0.5,4.5-0.8,6.7c0.4,2.3,0.6,4.2,0.8,5.6c-11.5-1.4-19.8-2.2-25-2.2v88
			c-1.2-0.1-3-0.2-5.4-0.3c-2.4-0.1-4.2-0.2-5.4-0.3c-1,0.1-2.6,0.2-4.8,0.3C985.4,341.2,983.7,341.3,982.6,341.4z"/>
		<path class="st0" d="M1039.4,341.7v-98.5h35c6.5,0,11.4,0.6,14.6,1.7c3.2,1.2,6.2,3.2,9,6.1c3.8,3.7,5.7,8.8,5.7,15.3
			c0,7.9-2.2,13.9-6.6,18c-4.4,4-9.4,6.7-15,8.1c3.3,5.7,6.3,10.7,8.9,15c2.6,4.3,6.4,10.3,11.2,18c4.8,7.7,8.1,13.1,10,16.1
			c-4.6-0.6-8.8-0.9-12.5-0.9c-3.8,0-8,0.3-12.8,0.9c-2.7-4.9-5.9-10.8-9.6-17.6c-3.7-6.8-6.7-12.2-8.8-16.1
			c-2.2-3.9-4.5-8-7.1-12.4h-0.9v46.1c-4.1-0.6-7.6-0.9-10.4-0.9C1047.1,340.9,1043.6,341.2,1039.4,341.7z M1060.3,289.5
			c0.7,0.1,1.8,0.1,3.2,0.1c12.2,0,18.5-6.8,18.7-20.3c0-5.2-0.8-9.1-2.3-11.8c-1.5-2.7-3.5-4.4-6-5.2c-2.4-0.8-5.4-1.2-8.8-1.2
			h-4.8V289.5z"/>
		<path class="st0" d="M1116.6,292.5c0.2-6.2,1.3-12.4,3.3-18.4c2-6,5.2-11.5,9.4-16.6c4.3-5.1,9.8-9.1,16.5-12.2
			c6.8-3.1,14.8-4.6,24.1-4.6c8.9,0,16.7,1.3,23.4,4c6.7,2.7,12.3,6.4,16.6,11.1c4.3,4.7,7.6,10.1,9.7,16.3
			c2.1,6.1,3.2,12.7,3.2,19.6c0,8-1.4,15.1-4.1,21.4c-2.7,6.3-6.6,11.6-11.6,15.9c-5,4.4-10.8,7.7-17.4,10.1
			c-6.6,2.4-13.9,3.7-21.7,4.1c-7,0-14.5-1.4-22.3-4.2c-7.9-2.8-14.7-7.9-20.6-15.2c-5.8-7.3-8.8-17.2-8.9-29.5
			C1116.5,293.9,1116.6,293.3,1116.6,292.5z M1199.7,289.2c0-7.8-1.2-14.7-3.5-20.8c-2.3-6.1-5.7-10.8-10-14.2
			c-4.4-3.4-9.4-5.1-15.2-5.1h-0.3c-10.6,0.3-18.4,4.7-23.4,13.4c-5,8.7-7.6,20.1-7.6,34c0.2,8,1.6,14.8,4.2,20.6
			c2.6,5.8,6.1,10.1,10.4,13.1c4.3,2.9,9,4.4,14.1,4.4c8,0,14.4-2.6,19-7.7c4.6-5.1,7.8-11.2,9.6-18.1
			C1198.8,301.9,1199.7,295.4,1199.7,289.2z"/>
		<path class="st0" d="M1273.5,340.9v-97.6h47.2c7.4,0,14.3,1.7,20.7,5.1c6.4,3.4,11.6,8.5,15.6,15.4c3.9,6.9,5.9,15.2,5.9,24.9
			c0,10-2,18.9-6,26.9c-3.9,7.9-9.8,14.1-17.6,18.6c-7.8,4.5-17.4,6.7-28.6,6.7H1273.5z M1294,332.4h12.8c21.9,0,33-14.3,33-42.9
			c0-13.8-2.9-23.5-8.8-29.2c-5.9-5.7-13.5-8.6-22.8-8.6H1294V332.4z"/>
		<path class="st0" d="M1378.2,340.9v-97.6h53.1c-0.3,1.4-0.7,3.6-1.1,6.4c0.2,1.4,0.5,3.4,0.8,5.9c-9.5-1.2-18.6-1.9-27.3-1.9h-4.6
			v30.6h18c5.5,0,9.9-0.4,13.4-1.3c-0.2,1.4-0.3,2.7-0.5,3.9c-0.1,1.1-0.3,2.1-0.4,2.9c0.3,1.9,0.6,3.8,0.8,5.9
			c-4.4-1-10-1.4-16.8-1.4h-14.6v36.3c10.9,0,21.7-0.7,32.2-2c-0.5,2.6-0.9,4.9-1.1,6.7c0.3,1.6,0.6,3.5,0.8,5.6H1378.2z"/>
		<path class="st0" d="M702.9,398.7c2.3,0.2,5.7,0.4,10.3,0.8c4.6-0.4,8-0.7,10.3-0.8v98.5c-3.7-0.6-7.3-0.9-10.8-0.9
			c-3.1,0-6.3,0.3-9.7,0.9V398.7z"/>
		<path class="st0" d="M745.8,496.8v-98.1h13.9c4,4.6,8.7,9.9,14,15.7c5.3,5.8,10.6,11.8,16.1,17.7c5.5,6,10.7,11.7,15.6,17.3
			c4.9,5.5,9.6,11,14.1,16.4v-67.1c0.7,0.1,1.6,0.2,2.7,0.3c1.2,0.1,2.1,0.2,2.7,0.3c0.7-0.1,1.6-0.2,2.8-0.3
			c1.2-0.1,2.2-0.2,2.8-0.3v98.5l-11.7-0.3c-15.5-17.7-27.2-31-35.1-39.9c-8-9-16.9-18.7-26.9-29.3v69.2c-0.8-0.1-1.8-0.2-3.2-0.3
			c-1.3-0.1-2.4-0.2-3.1-0.3c-0.5,0.1-1.2,0.2-2.3,0.3C747.2,496.6,746.4,496.7,745.8,496.8z"/>
		<path class="st0" d="M842.4,398.7c2.9,0.2,6.9,0.5,12.1,0.8c5.8-0.4,9.9-0.7,12.2-0.8c2.2,7.8,4.5,15.2,7.1,22.3
			c2.5,7.1,5.6,15.5,9.2,25.2s6.4,17.5,8.5,23.4c2-5.2,4.4-11.2,7.1-18.1c2.7-6.9,5-12.8,6.8-17.7c1.9-4.9,3.9-10.5,6.1-16.9
			c2.2-6.4,4.3-12.5,6.1-18.3c0.7,0.1,1.8,0.2,3.1,0.3c1.4,0.1,2.4,0.2,3.1,0.3c0.7-0.1,1.8-0.2,3.2-0.3c1.4-0.1,2.4-0.2,3.2-0.3
			c-3.1,7.8-6.7,16.4-10.6,25.9c-3.9,9.5-7.3,17.8-10.2,24.9c-2.9,7.1-5.8,14.7-8.9,22.8s-6.1,16.4-9,24.8c-2.2-0.6-4.2-0.9-6-0.9
			c-1.6,0-3.5,0.3-5.7,0.9c-3.1-8.6-6.2-17.3-9.5-26.2c-3.2-8.8-6.3-17.1-9.2-24.8c-2.9-7.7-6-15.6-9.2-23.8
			C848.7,414.2,845.5,406.3,842.4,398.7z"/>
		<path class="st0" d="M941.4,496.2v-97.6h53.1c-0.3,1.4-0.7,3.6-1.1,6.4c0.2,1.4,0.5,3.4,0.8,5.9c-9.5-1.2-18.6-1.9-27.3-1.9h-4.6
			v30.6h18c5.5,0,9.9-0.4,13.4-1.3c-0.2,1.4-0.3,2.7-0.5,3.9c-0.1,1.1-0.3,2.1-0.4,2.9c0.3,1.9,0.6,3.8,0.8,5.9
			c-4.4-1-10-1.4-16.8-1.4h-14.6v36.3c10.9,0,21.7-0.7,32.2-2c-0.5,2.6-0.9,4.9-1.1,6.7c0.3,1.6,0.6,3.5,0.8,5.6H941.4z"/>
		<path class="st0" d="M1007.6,474.5h2.8c1.1,4.6,3.2,8.3,6.3,11.1c3.1,2.9,7.5,4.4,12.9,4.5c4.5,0,8.3-1.4,11.4-4.1
			c3.1-2.7,4.6-6.3,4.6-10.6c0-4-1.4-7.5-4.1-10.4c-2.7-2.9-7.4-5.8-14.1-8.7c-5.2-2.3-9.4-4.8-12.7-7.3c-3.3-2.6-5.9-5.7-7.6-9.4
			c-1.8-3.7-2.7-8.1-2.7-13.2c0-5.4,1.2-10.4,3.5-15c2.3-4.6,5.9-8.3,10.8-11c4.9-2.8,11-4.1,18.2-4.1c4,0,8,0.6,12,1.9
			c4,1.3,7.2,2.9,9.5,4.8c-0.7,2.2-1.4,4.5-2.2,7c-0.8,2.4-1.5,4.8-2.2,7.2h-2.1c-1.1-3.4-2.9-6.3-5.6-8.7
			c-2.7-2.4-6.1-3.6-10.2-3.6c-10.3,0-15.4,4.8-15.4,14.3c0,5.5,4.1,10.2,12.2,14.3l10.3,5.3c7.7,3.8,12.9,8.2,15.7,13.2
			c2.8,5,4.2,10.4,4.2,16.2c-0.1,5-1.2,9.4-3.3,13.2c-2.1,3.8-4.9,7.1-8.5,9.7c-3.6,2.6-7.6,4.6-12,5.9c-4.4,1.3-8.9,2-13.5,2
			c-8.7-0.3-16.1-2.3-22.2-6.1C1005.4,486.3,1006.8,480.3,1007.6,474.5z"/>
		<path class="st0" d="M1093.9,496.8v-88c-9.3,0-18,0.7-26,2.2c0-0.8,0.1-1.9,0.2-3c0.1-1.2,0.2-2,0.2-2.6c0-0.7-0.1-1.7-0.2-3.2
			c-0.1-1.5-0.2-2.6-0.2-3.5h71.5c-0.2,2.2-0.5,4.5-0.8,6.7c0.4,2.3,0.6,4.2,0.8,5.6c-11.5-1.4-19.8-2.2-25-2.2v88
			c-1.2-0.1-3-0.2-5.4-0.3c-2.4-0.1-4.2-0.2-5.4-0.3c-1,0.1-2.6,0.2-4.8,0.3C1096.7,496.6,1095.1,496.7,1093.9,496.8z"/>
		<path class="st0" d="M1153.2,398.7c2.3,0.2,5.7,0.4,10.3,0.8c4.6-0.4,8-0.7,10.3-0.8v98.5c-3.7-0.6-7.3-0.9-10.8-0.9
			c-3.1,0-6.3,0.3-9.7,0.9V398.7z"/>
		<path class="st0" d="M1190.3,450.2c0-6.4,1-12.7,2.9-19c1.9-6.2,5.1-12,9.4-17.2c4.4-5.2,10.3-9.5,17.7-12.7
			c7.4-3.3,16.4-4.9,26.9-5.1c12.8,0,24.1,2.9,33.9,8.6c-1,2.1-1.8,4.6-2.6,7.7c-0.8,3-1.2,5.3-1.4,6.9h-1.9
			c-3.4-5.3-7.5-9-12.5-11.3c-5-2.2-9.9-3.3-14.8-3.3c-5.1,0-9.7,1-13.8,3.1c-4.2,2.1-7.8,5-10.8,9c-3,3.9-5.4,8.8-7.2,14.4
			s-2.7,12.1-2.9,19.2c0,7.9,1.4,14.9,4.2,21c2.8,6.1,6.6,10.8,11.4,14.1c4.8,3.3,10.2,5,16.2,5.1c5.8-0.3,11.5-1.8,17.1-4.4v-33.6
			c3.7,0.6,7.1,0.8,10.3,0.8c3.3,0,6.8-0.3,10.5-0.8v39.8c-13.2,4.3-25.6,6.4-37.2,6.4c-6.5,0-12.9-0.8-19.4-2.5
			c-6.5-1.7-12.4-4.4-17.8-8.2c-5.4-3.8-9.8-8.9-13.1-15.2C1192,466.6,1190.3,459,1190.3,450.2z"/>
		<path class="st0" d="M1292.1,496.8l39.6-99.4c0.8,0.1,1.6,0.2,2.5,0.2c0.9,0,1.8,0.1,2.6,0.2c3.1-0.2,4.9-0.3,5.4-0.4l38.7,99.4
			c-1.6-0.1-3.7-0.2-6.4-0.3c-2.7-0.1-4.8-0.2-6.3-0.3c-1.2,0.1-3,0.2-5.5,0.3c-2.5,0.1-4.4,0.2-5.7,0.3c-2.9-9.8-6.1-19.7-9.7-29.6
			h-32.5c-0.5,1.5-1.7,4.8-3.4,9.7c-1.8,5-3.1,8.8-4,11.6c-0.9,2.8-1.7,5.5-2.4,8.3c-0.8-0.1-1.9-0.2-3.4-0.3
			c-1.5-0.1-2.7-0.2-3.5-0.3c-0.6,0.1-1.5,0.2-2.9,0.3C1293.8,496.6,1292.8,496.7,1292.1,496.8z M1344.2,458.2l-12.5-33.2l-13,33.2
			H1344.2z"/>
		<path class="st0" d="M1384.3,451c0.2-14.3,3.3-25.6,9.5-33.8c6.1-8.2,13.2-13.7,21.3-16.6c8.1-2.9,15.9-4.4,23.5-4.4
			c6.8,0,12.8,0.8,18.1,2.3c5.3,1.5,9.1,3.1,11.4,4.7c-1,3.9-2.1,8.8-3.3,14.7h-1.8c-3.1-4.4-6.6-7.6-10.6-9.8
			c-4-2.2-8.2-3.3-12.4-3.3c-6.2,0-11.7,1.7-16.7,5.2c-5,3.5-8.9,8.6-11.7,15.2c-2.8,6.6-4.3,14.5-4.3,23.5c0,8,1.3,15.1,3.8,21.3
			c2.5,6.2,6.3,11.1,11.3,14.7c5,3.6,11.2,5.3,18.4,5.3c4,0,8.4-1,13-2.9c4.6-1.9,8.5-4.5,11.6-7.7l2,0.8l-3.2,12.3
			c-7,4.1-16.2,6.1-27.5,6.1c-8,0-15.3-1.3-21.8-3.8c-6.5-2.5-12-6-16.6-10.5c-4.5-4.4-8-9.6-10.4-15.4
			C1385.4,463.4,1384.3,457.3,1384.3,451z"/>
		<path class="st0" d="M1484.2,398.7c2.3,0.2,5.7,0.4,10.3,0.8c4.6-0.4,8-0.7,10.3-0.8v98.5c-3.7-0.6-7.3-0.9-10.8-0.9
			c-3.1,0-6.3,0.3-9.7,0.9V398.7z"/>
		<path class="st0" d="M1520.3,447.9c0.2-6.2,1.3-12.4,3.3-18.4c2-6,5.2-11.5,9.4-16.6c4.3-5.1,9.8-9.1,16.5-12.2
			c6.8-3.1,14.8-4.6,24.1-4.6c8.9,0,16.7,1.3,23.4,4c6.7,2.7,12.3,6.4,16.6,11.1c4.3,4.7,7.6,10.1,9.7,16.3
			c2.1,6.1,3.2,12.7,3.2,19.6c0,8-1.4,15.1-4.1,21.4c-2.7,6.3-6.6,11.6-11.6,15.9c-5,4.4-10.8,7.7-17.4,10.1
			c-6.6,2.4-13.9,3.7-21.7,4.1c-7,0-14.5-1.4-22.3-4.2c-7.9-2.8-14.7-7.9-20.6-15.2c-5.8-7.3-8.8-17.2-8.9-29.5
			C1520.2,449.3,1520.3,448.6,1520.3,447.9z M1603.3,444.6c0-7.8-1.2-14.7-3.5-20.8c-2.3-6.1-5.7-10.8-10-14.2
			c-4.4-3.4-9.4-5.1-15.2-5.1h-0.3c-10.6,0.3-18.4,4.7-23.4,13.4c-5,8.7-7.6,20.1-7.6,34c0.2,8,1.6,14.8,4.2,20.6
			c2.6,5.8,6.1,10.1,10.4,13.1c4.3,2.9,9,4.4,14.1,4.4c8,0,14.4-2.6,19-7.7c4.6-5.1,7.8-11.2,9.6-18.1
			C1602.4,457.3,1603.3,450.8,1603.3,444.6z M1562.3,389.2l18.5-22c2.1-3,4.7-4.4,7.8-4.4c4.5,0,6.8,2.2,6.8,6.6
			c0,2.3-1.4,4.4-4.3,6.5l-21.1,13.5H1562.3z"/>
		<path class="st0" d="M1640.5,496.8v-98.1h13.9c4,4.6,8.7,9.9,14,15.7c5.3,5.8,10.6,11.8,16.1,17.7c5.5,6,10.7,11.7,15.6,17.3
			c4.9,5.5,9.6,11,14.1,16.4v-67.1c0.7,0.1,1.6,0.2,2.7,0.3c1.2,0.1,2.1,0.2,2.7,0.3c0.7-0.1,1.6-0.2,2.8-0.3
			c1.2-0.1,2.2-0.2,2.8-0.3v98.5l-11.7-0.3c-15.5-17.7-27.2-31-35.1-39.9c-8-9-16.9-18.7-26.9-29.3v69.2c-0.8-0.1-1.8-0.2-3.2-0.3
			c-1.3-0.1-2.4-0.2-3.1-0.3c-0.5,0.1-1.2,0.2-2.3,0.3C1642,496.6,1641.1,496.7,1640.5,496.8z"/>
	</g>
</g>
</svg>
