<?xml version="1.0" encoding="utf-8"?>
<!-- Generator: Adobe Illustrator 22.1.0, SVG Export Plug-In . SVG Version: 6.00 Build 0)  -->
<svg version="1.1" id="Capa_1" xmlns="http://www.w3.org/2000/svg" xmlns:xlink="http://www.w3.org/1999/xlink" x="0px" y="0px"
	 viewBox="0 0 33 33" style="enable-background:new 0 0 33 33;" xml:space="preserve">
<g>
	<path d="M29.1,8.6H9c-1.9,0-3.4-1.5-3.4-3.4c0-1.9,1.5-3.4,3.4-3.4h20.1C29.6,1.9,30,1.4,30,1C30,0.5,29.6,0,29.1,0H9
		C6.2,0,3.8,2.4,3.8,5.2v22.6C3.8,30.7,6.2,33,9,33h20.1c0.5,0,0.9-0.4,0.9-0.9V9.5C30,9,29.6,8.6,29.1,8.6L29.1,8.6z M28.2,31.2H9
		c-1.9,0-3.4-1.5-3.4-3.4V9.2C6.6,10,7.7,10.4,9,10.4h19.2V31.2z M28.2,31.2"/>
	<path d="M9.3,4.4c-0.5,0-0.9,0.4-0.9,0.9c0,0.5,0.4,0.9,0.9,0.9h18c0.5,0,0.9-0.4,0.9-0.9c0-0.5-0.4-0.9-0.9-0.9H9.3z M9.3,4.4"/>
	<path d="M24.3,15.4c0-0.5-0.4-0.9-0.9-0.9H10.8c-0.5,0-0.9,0.4-0.9,0.9l0,0c0,0,0,0,0,0v6.3c0,0.5,0.4,0.9,0.9,0.9l0,0h12.7l0,0
		c0.1,0,0.1,0,0.1,0c0.4-0.1,0.7-0.4,0.8-0.9c0,0,0,0,0,0V15.4C24.3,15.4,24.3,15.4,24.3,15.4L24.3,15.4z M11.7,16.3h10.9v4.5H11.7
		V16.3z"/>
</g>
</svg>
