<?xml version="1.0" encoding="utf-8"?>
<!-- Generator: Adobe Illustrator 22.1.0, SVG Export Plug-In . SVG Version: 6.00 Build 0)  -->
<svg version="1.1" id="Capa_1" xmlns="http://www.w3.org/2000/svg" xmlns:xlink="http://www.w3.org/1999/xlink" x="0px" y="0px"
	 viewBox="0 0 28 28" style="enable-background:new 0 0 28 28;" xml:space="preserve">
<g>
	<path d="M24.8,7.3H7.7C6.1,7.3,4.9,6,4.9,4.5c0-1.6,1.3-2.9,2.9-2.9h17.1c0.4,0,0.8-0.3,0.8-0.8c0-0.4-0.3-0.8-0.8-0.8H7.7
		C5.3,0,3.3,2,3.3,4.5v19.2c0,2.4,2,4.4,4.4,4.4h17.1c0.4,0,0.8-0.3,0.8-0.8V8.1C25.6,7.7,25.2,7.3,24.8,7.3L24.8,7.3z M24,26.5H7.7
		c-1.6,0-2.9-1.3-2.9-2.9V7.8c0.8,0.7,1.8,1.1,2.9,1.1H24V26.5z M24,26.5"/>
	<path d="M8,3.8c-0.4,0-0.8,0.3-0.8,0.8c0,0.4,0.3,0.8,0.8,0.8h15.3c0.4,0,0.8-0.3,0.8-0.8c0-0.4-0.3-0.8-0.8-0.8H8z M8,3.8"/>
	<path d="M20.7,13.1c0-0.4-0.3-0.8-0.8-0.8H9.2c-0.4,0-0.8,0.3-0.8,0.8l0,0c0,0,0,0,0,0v5.4c0,0.4,0.3,0.8,0.8,0.8l0,0h10.8l0,0
		c0,0,0.1,0,0.1,0c0.4-0.1,0.6-0.4,0.6-0.7c0,0,0,0,0,0V13.1C20.7,13.1,20.7,13.1,20.7,13.1L20.7,13.1z M10,13.8h9.2v3.8H10V13.8z"
		/>
</g>
</svg>
