<?xml version="1.0" encoding="utf-8"?>
<!-- Generator: Adobe Illustrator 22.0.1, SVG Export Plug-In . SVG Version: 6.00 Build 0)  -->
<svg version="1.1" id="Capa_1" xmlns="http://www.w3.org/2000/svg" xmlns:xlink="http://www.w3.org/1999/xlink" x="0px" y="0px"
	 viewBox="0 0 50 50" style="enable-background:new 0 0 50 50;" xml:space="preserve">
<g>
	<g>
		<path d="M28.3,18.4c-0.9,0.9-0.9,2.4,0,3.3c2.9,2.9,2.9,7.5,0,10.4l-7.2,7.2c-2.9,2.9-7.5,2.9-10.4,0c-2.9-2.9-2.9-7.5,0-10.4
			c0.9-0.9,0.9-2.4,0-3.3c-0.9-0.9-2.4-0.9-3.3,0c-4.7,4.7-4.7,12.2,0,16.9c2.3,2.3,5.4,3.5,8.4,3.5c3.1,0,6.1-1.2,8.4-3.5l7.2-7.2
			c4.6-4.7,4.6-12.2,0-16.9C30.6,17.5,29.2,17.5,28.3,18.4z M41.9,8c-4.6-4.7-12.2-4.7-16.9,0l-7.2,7.2c-4.7,4.7-4.7,12.2,0,16.9
			c0.4,0.4,1,0.7,1.6,0.7s1.2-0.2,1.6-0.7c0.9-0.9,0.9-2.4,0-3.3c-2.9-2.9-2.9-7.5,0-10.4l7.2-7.2c2.9-2.9,7.5-2.9,10.4,0
			c2.9,2.9,2.9,7.5,0,10.4c-0.9,0.9-0.9,2.4,0,3.3c0.9,0.9,2.4,0.9,3.3,0C46.6,20.3,46.6,12.7,41.9,8z"/>
	</g>
</g>
</svg>
