<?xml version="1.0" encoding="utf-8"?>
<!-- Generator: Adobe Illustrator 22.0.1, SVG Export Plug-In . SVG Version: 6.00 Build 0)  -->
<svg version="1.1" id="Capa_1" xmlns="http://www.w3.org/2000/svg" xmlns:xlink="http://www.w3.org/1999/xlink" x="0px" y="0px"
	 viewBox="0 0 50 50" style="enable-background:new 0 0 50 50;" xml:space="preserve">
<path d="M25,48c-1.9,0-3.6-1-4.4-2.7L10.4,25.6C7.9,20.7,8,15,10.7,10.3C13.4,5.4,18.4,2.3,24,2c0.7,0,1.4,0,2.1,0l0,0
	c5.6,0.3,10.6,3.4,13.3,8.2c2.7,4.8,2.8,10.5,0.3,15.3L29.4,45.3C28.6,47,26.9,48,25,48z M25,5.5c-0.3,0-0.6,0-0.8,0
	c-4.4,0.2-8.3,2.7-10.4,6.5c-2.1,3.7-2.2,8.2-0.2,11.9l10.2,19.8c0.4,0.7,1.1,0.8,1.3,0.8c0.2,0,0.9-0.1,1.3-0.8l10.2-19.8
	c1.9-3.8,1.9-8.2-0.2-11.9c-2.1-3.8-6-6.2-10.4-6.5h0C25.6,5.5,25.3,5.5,25,5.5z M25,26.5c-4.1,0-7.5-3.3-7.5-7.3
	c0-4,3.4-7.3,7.5-7.3c4.1,0,7.5,3.3,7.5,7.3C32.5,23.2,29.2,26.5,25,26.5z M25,14.8c-2.5,0-4.6,2-4.6,4.4c0,2.4,2.1,4.4,4.6,4.4
	c2.5,0,4.6-2,4.6-4.4C29.6,16.8,27.6,14.8,25,14.8z"/>
</svg>
