<?xml version="1.0" encoding="utf-8"?>
<!-- Generator: Adobe Illustrator 20.1.0, SVG Export Plug-In . SVG Version: 6.00 Build 0)  -->
<svg version="1.1" id="Capa_1" xmlns="http://www.w3.org/2000/svg" xmlns:xlink="http://www.w3.org/1999/xlink" x="0px" y="0px"
	 viewBox="0 0 732 227.1" style="enable-background:new 0 0 732 227.1;" xml:space="preserve">
<style type="text/css">
	.st0{clip-path:url(#SVGID_2_);fill-rule:evenodd;clip-rule:evenodd;fill:#1F2A59;}
	.st1{clip-path:url(#SVGID_2_);fill:#1F2A59;}
	.st2{clip-path:url(#SVGID_4_);fill:url(#SVGID_5_);}
</style>
<g>
	<defs>
		<rect id="SVGID_1_" width="823.8" height="227.1"/>
	</defs>
	<clipPath id="SVGID_2_">
		<use xlink:href="#SVGID_1_"  style="overflow:visible;"/>
	</clipPath>
	<path class="st0" d="M108.9,155.5l-3.8-4.3l0.1-38.2l3.8-4.2H91.5l3.8,4.2v30.9c0,0-11.1,13.6-22.1,1.5c0,0-11.3-11.5,2.6-36.7
		H62.8l4,4.2c0,0-12.7,21.2,0,35.3c0,0,12.4,14.1,28.5,2.2v5H108.9z"/>
	<path class="st1" d="M88.6,90.3l-14.5,0.2l4.2,4l0,78.3l-3.8,4.1h17.2l-3.8-4.1l-0.2-45.6c0,0,32.8,1.8,32.8-18.8
		C120.5,106.8,121.4,90.3,88.6,90.3 M87.5,123V94.6c2,0,4.1-0.1,8.5,0.2c16.4,0.8,16.2,12.3,16.2,12.3
		C112.3,126.6,87.5,123,87.5,123"/>
	<path class="st1" d="M29.9,137.6c-1.7-2.3-4.1-2.2-6.6-2.1l-0.3,0l-8,0.4l-0.2,0l0,0.2c0.1,0.3,0.1,0.6,0.1,0.9c0,0.3,0,0.6,0,0.9
		l0,0.2l0.2,0l6.9-0.4c1.1-0.1,3.6-0.2,4.6,0.1c2,0.7,2.7,1.7,2.9,3.8c0.1,1-0.2,1.8-0.8,2.5c-0.7,0.8-1.3,1-2.4,1.3
		c-1,0.2-2.4,0.3-3.6,0.4l-0.6,0l-6.4,0.3l-0.2,0l0,0.2l0.1,0.4c0.1,0.4,0.1,0.8,0.1,1.3c0,0.4,0,0.8,0,1.3l0,0.4l0,0.2l0.2,0
		l9.2-0.5c1-0.1,2-0.2,2.8-0.5c3.3-1.1,3.7-4.8,3.5-6.9C31.3,140.7,31,139,29.9,137.6"/>
	<path class="st1" d="M30.5,131.1l0-0.2c0-0.1,0-0.2,0-0.3c0-0.2,0-0.4-0.1-0.6c0-0.2,0-0.4,0-0.6c0-0.1,0-0.2,0-0.3l0-0.2l-0.2,0
		l-10.6,0.3L22,127c2-2,4-3.9,6.2-6l2-1.9l0.1,0v-0.1l0-1.9l0-0.2H30l-15.5,0.4h-0.2l0,0.2c0,0.3,0.1,0.6,0.1,0.9c0,0.3,0,0.6,0,0.9
		l0,0.2l0.2,0l10.2-0.3c-2.1,2-4.2,4-6.2,6c-1.2,1.2-2.5,2.5-3.8,3.8l0,0.1v0.1l0.1,2.2l0,0.2l0.2,0l15.5-0.4H30.5z"/>
	<path class="st1" d="M14.3,109.8c0,0.4,0.1,0.8,0.1,1.3c0,0.4,0,0.8-0.1,1.2l0,0.4l0,0.2l0.2,0l15.5,0h0.2l0-0.2l0-0.4
		c-0.1-0.4-0.1-0.8-0.1-1.3c0-0.4,0-0.9,0.1-1.3l0-0.4l0-0.2H30l-15.5,0.1h-0.2l0,0.2L14.3,109.8z"/>
	<path class="st1" d="M30.1,100.5l0.1-0.1l0-0.1c0-0.1,0-0.2,0-0.2c0-0.2-0.1-0.5-0.1-0.7c0-0.2,0-0.5,0.1-0.7c0-0.1,0-0.2,0-0.2
		l0-0.1l-0.1,0c-4.7-1.8-9.3-3.9-13.7-5.9l-1.6-0.8l-0.3-0.1l0,0.3c0,0.4,0.1,0.7,0,1c0,0.3,0,0.7-0.1,1l0,0.1l0.1,0
		c3.9,1.4,7.7,3,10.7,4.3l-3.2,1.1c-2.5,0.9-5.2,1.8-7.7,2.5l-0.1,0l0,0.1l0,0.5c0,0.5,0.1,1,0.1,1.5c0,0.5-0.1,1-0.1,1.5l0,0.5
		l0,0.3l0.2-0.1C20.5,103.8,25.5,102,30.1,100.5"/>
	<path class="st1" d="M30.3,89.6h0.2l0-0.2l0.6-8.6l0-0.2l-0.2,0l-0.2,0c-0.3,0-0.5,0-0.7,0c-0.2,0-0.5-0.1-0.7-0.1l-0.2,0l-0.2-0.1
		l0,0.2c0.1,1.5,0.1,3,0,5.1l-5.4-0.4l0.2-2.2c0.1-0.9,0.2-1.7,0.4-2.7l0-0.2l-0.2,0l-0.2,0c-0.2,0-0.5,0.1-0.7,0
		c-0.2,0-0.5-0.1-0.7-0.1l-0.2,0l-0.2-0.1l0,0.2c0.1,1,0.1,1.9,0,2.8l-0.2,2.2L17,85c0.1-2.2,0.4-3.6,0.6-5l0.1-0.2l-0.2,0l-0.2,0
		c-0.2,0-0.5,0-0.7,0c-0.2,0-0.5-0.1-0.7-0.1l-0.2,0l-0.2,0l0,0.2l-0.6,8.6l0,0.2l0.2,0L30.3,89.6z"/>
	<path class="st1" d="M31.3,66.6l-1.5,0.7c-1.7,0.8-3.4,1.6-5.2,2.3c-0.2-2.2-1.5-3.7-3.6-4c-1.5-0.2-2.7,0.3-3.6,1.6
		c-0.6,0.8-0.8,2.3-1,3.4l0,0.3l-0.7,4.8l0,0.2l0.2,0l15.4,2.1l0.2,0l0-0.2l0-0.4c0-0.4,0-0.8,0.1-1.3c0.1-0.4,0.1-0.8,0.3-1.2
		l0.1-0.4l0-0.2l-0.2,0l-6.9-0.9l1-0.4c0.6-0.2,1.1-0.4,1.5-0.6l5.1-2l0.1,0v-0.1l0-0.5c0-0.5,0.1-1,0.1-1.5c0.1-0.5,0.2-1,0.3-1.5
		l0.1-0.5l0.1-0.3l-0.3,0.1L31.3,66.6z M23.5,73.1l-5.7-0.8l0-0.2c0.2-1.3,0.3-2.6,1.9-2.7c0.4,0,0.8,0,1.1,0.1
		c1.1,0.2,1.9,0.6,2.3,1.2C23.6,71.2,23.7,72.1,23.5,73.1"/>
	<path class="st1" d="M31.6,53.6c-2.9-0.9-4.7,1-6.1,2.6c-1.1,1.2-2,2.2-3.2,1.9c-1.3-0.4-1.8-1.4-1.3-2.8c0.4-1.4,1.6-1.8,2.5-1.8
		h0.1l0-0.1l0.1-0.3l0-0.1l-0.1-0.1c-0.6-0.4-1.3-0.8-1.9-1.3l-0.1-0.1l-0.1,0.1c-0.6,0.3-1.6,1.6-2.1,3.2c-0.5,1.6-0.4,3.1,0.2,4.3
		c0.6,1.1,1.6,1.9,2.9,2.3c3,0.9,4.5-0.9,5.9-2.4c1.1-1.2,2-2.3,3.5-1.8c0.6,0.2,1,0.5,1.3,1c0.3,0.6,0.4,1.3,0.1,2
		c-0.4,1.4-1.6,2.3-3.1,2.2l-0.1,0l0,0.1l-0.1,0.4l-0.1,0.1l0.1,0.1c0.9,0.4,1.8,0.9,2.6,1.4l0.1,0.1l0.1-0.1c0.9-0.8,1.6-1.9,2-3.3
		c0.5-1.9,0.4-3.7-0.3-5.1C33.8,54.8,32.8,54,31.6,53.6"/>
	<path class="st1" d="M27,40.7l-0.1-0.1l-0.1,0.2l-0.2,0.4c-0.2,0.4-0.4,0.7-0.6,1.1c-0.2,0.3-0.5,0.7-0.8,1l-0.3,0.3l-0.1,0.1
		l0.1,0.1l12.8,8.8l0.1,0.1l0.1-0.1l0.2-0.4c0.2-0.4,0.4-0.7,0.6-1.1c0.2-0.3,0.5-0.7,0.8-1l0.3-0.3l0.1-0.1l-0.2-0.1L27,40.7z"/>
	<path class="st1" d="M44.7,27.3c-1.9-0.5-3.8,0-5.7,1.3l-6.2,4.7l-0.1,0.1l0.1,0.1l9.3,12.3l0.1,0.1l0.1-0.1l5.1-3.8
		c1.9-1.5,3.2-3.4,3.5-5.6c0.3-2.1-0.3-4.2-1.8-6.1C47.9,28.7,46.4,27.6,44.7,27.3 M45.6,41.3l-1.4,1.1l-7.5-10l1.6-1.2
		c1.3-0.9,2.5-1.3,3.7-1.2c1.3,0.2,2.6,1.1,3.9,2.8C48.5,36.4,48.5,39.2,45.6,41.3"/>
	<path class="st1" d="M58.8,18.7L58.8,18.7l-0.2,0c-0.3,0.1-0.5,0.2-0.8,0.3c-0.3,0.1-0.5,0.2-0.8,0.2l-0.1,0l0,0.1l-1.3,16.9l0,0.3
		l0.2-0.1c0.1,0,0.2-0.1,0.3-0.1c0.2-0.1,0.4-0.2,0.7-0.3c0.2-0.1,0.4-0.1,0.7-0.2c0.1,0,0.2-0.1,0.4-0.1l0.1,0l0-0.1
		c-0.1-1.1,0-2.1,0-3.2l0-1.6l4.8-1.6c1,1.2,1.9,2.5,2.9,3.8l0.1,0.1l0.1,0.1l0.1-0.1l0.5-0.2c0.5-0.2,0.9-0.4,1.4-0.5
		c0.4-0.1,0.9-0.3,1.4-0.4l0.5-0.1l0.3-0.1l-0.2-0.2L58.8,18.7z M61.7,27.8l-3.5,1.1l0.3-5L61.7,27.8z"/>
	<path class="st1" d="M84.1,17c-1.3-1.4-3.2-2-5.5-1.9l-7.7,0.7l-0.2,0l0,0.2l1.4,15.4l0,0.2l0.1,0l6.3-0.6c2.3-0.2,4.4-1.2,5.8-2.7
		c1.4-1.6,2.1-3.8,1.9-6.3C86,19.9,85.3,18.2,84.1,17 M75.6,29.6l-1.1-12.4l2-0.2c1.6-0.1,2.8,0.2,3.7,0.9c1,0.9,1.6,2.3,1.8,4.4
		c0.4,4.5-1.2,6.8-4.7,7.1C77.4,29.4,76.1,29.5,75.6,29.6"/>
	<path class="st1" d="M106.5,15.3l-7.7-0.9l-0.2,0l0,0.2l-1.7,15.3l0,0.2l0.2,0l6.3,0.7c2.4,0.3,4.7-0.3,6.4-1.6
		c1.6-1.3,2.7-3.3,2.9-5.7c0.2-2-0.1-3.8-1.1-5.2C110.5,16.6,108.8,15.7,106.5,15.3 M102.1,16.5l2,0.2c3.4,0.4,4.8,2.4,4.4,6.3
		c-0.5,4.5-2.5,6.5-6,6.1l-1.8-0.2L102.1,16.5z"/>
	<path class="st1" d="M125.8,27.1l0.1-0.2l0.1-0.2l-0.2,0c-1-0.2-1.9-0.4-2.7-0.7l-2.1-0.7l1.5-4.3c2.1,0.7,3.4,1.3,4.7,2l0.2,0.1
		l0-0.2l0-0.2c0-0.2,0.1-0.5,0.2-0.7c0.1-0.2,0.2-0.4,0.3-0.7l0.1-0.2l0.1-0.2l-0.2-0.1l-8.1-2.9l-0.1,0l-0.1,0.2l-5.1,14.6
		l-0.1,0.2l0.2,0.1l8.2,2.8l0.2,0.1l0-0.2l0-0.2c0-0.2,0.1-0.5,0.2-0.7c0.1-0.2,0.2-0.4,0.3-0.6l0.1-0.2l0.1-0.2l-0.2,0
		c-1.5-0.3-2.9-0.7-4.9-1.4l1.8-5.1l2.1,0.7c0.8,0.3,1.6,0.6,2.5,1.1l0.2,0.1l0-0.2l0-0.2c0-0.2,0.1-0.5,0.2-0.7
		C125.6,27.5,125.7,27.3,125.8,27.1"/>
	<path class="st1" d="M136.8,25.6c-0.4-0.2-0.7-0.4-1.1-0.6c-0.4-0.2-0.7-0.5-1-0.8l-0.3-0.3l-0.1-0.1l-0.1,0.1l-8.5,12.9l-0.1,0.1
		l0.1,0.1l7.2,4.7l0.2,0.1l0.1-0.2l0.1-0.2c0.1-0.2,0.2-0.5,0.3-0.7c0.1-0.2,0.3-0.4,0.5-0.6l0.2-0.2l0.1-0.1l-0.2-0.1
		c-1.4-0.7-2.8-1.5-4.4-2.5l7.5-11.4l0.1-0.1l-0.2-0.1L136.8,25.6z"/>
	<path class="st1" d="M151,53.7c1.1,0.4,2.3,0.2,3.6-0.5c2.3-1.2,2.8-3.3,1.3-6.3l-2.5-5l-0.1-0.1l-0.1,0.1l-13.9,7l-0.2,0.1
		l0.1,0.2l0.2,0.4c0.2,0.4,0.4,0.7,0.6,1.1c0.2,0.4,0.4,0.8,0.5,1.2l0.2,0.4l0.1,0.2l0.2-0.1l6-3C148.3,51.9,149.6,53.2,151,53.7
		 M153.7,45.9l0.5,1.1c0.2,0.4,0.2,0.8,0.1,1.2c-0.2,0.7-0.9,1.3-1.8,1.8c-0.8,0.4-2.3,0.9-3.5-0.4c-0.3-0.3-0.5-0.7-0.7-1.1
		L153.7,45.9z"/>
	<path class="st1" d="M161.2,64.4l0-0.1c-0.1-0.3-0.1-0.5-0.2-0.8c0-0.3-0.1-0.5-0.1-0.8v-0.1l-0.1,0l-16.5-4.2l-0.2-0.1l0.1,0.3
		c0,0.1,0,0.2,0.1,0.3c0.1,0.2,0.1,0.5,0.1,0.7c0,0.2,0.1,0.5,0.1,0.7c0,0.1,0,0.2,0,0.4l0,0.1l0.1,0c1.1,0.1,2.1,0.4,3.2,0.6
		l1.5,0.3l0.7,5c-1.4,0.8-2.8,1.5-4.3,2.2l-0.1,0l-0.1,0l0,0.1l0.1,0.5c0.1,0.5,0.2,0.9,0.3,1.4c0.1,0.5,0.1,1,0.1,1.4l0,0.5l0,0.3
		l0.2-0.1l14.7-8.5L161.2,64.4z M156,63.3l-4.4,2.4l-0.5-3.6L156,63.3z"/>
	<path class="st1" d="M148.5,87.2L148.5,87.2l2.1,0.3l0.1,0l0-0.1l0.1-0.3l0-0.1l-0.1-0.1c-1.1-0.9-1.9-2.4-2.1-3.7
		c-0.4-3.2,1.9-5.5,5.8-5.9c3.4-0.4,6.9,0.8,7.3,4.3c0.2,1.4-0.5,2.9-1.6,3.8l-0.1,0.1l0,0.1l0,0.3l0,0.1l0.1,0
		c0.3,0,0.6,0.1,0.9,0.1c0.5,0,1,0.1,1.5,0.2l0.1,0l0-0.1c0.6-1.3,0.8-3.2,0.6-4.8c-0.3-2.8-1.4-5.1-3.2-6.5
		c-1.7-1.4-3.9-1.9-6.5-1.6c-2.1,0.2-3.8,1.2-5.1,2.7c-1.4,1.7-2,4.2-1.7,6.8C147.1,83.9,147.5,85.6,148.5,87.2L148.5,87.2z"/>
	<path class="st1" d="M164.2,93.2c0,0,0-0.2,0-0.2l-0.1-0.4c-0.1-0.4-0.2-0.8-0.2-1.2c0-0.4,0-0.9,0-1.3v-0.4v-0.2l-0.2,0L148.3,91
		l-0.2,0l0,0.2l0.1,0.4c0.1,0.4,0.1,0.8,0.2,1.3c0,0.4,0,0.8,0,1.3l0,0.4v0.2l0.2,0l15.5-1.4L164.2,93.2z"/>
	<path class="st1" d="M156.7,104c0.1,0.7,0,1.4,0,2.2l0,0.5v0.2l0.2,0l0.2-0.1c0.2,0,0.5-0.1,0.7-0.1c0.2,0,0.5,0,0.7,0l0.2,0l0.2,0
		l-0.1-0.2c-0.2-1-0.3-1.9-0.4-2.7c0,0-0.1-1.7-0.2-2.2l4.5-0.3c0.2,2.4,0.1,3.9,0.1,5.1v0.2l0.2,0l0.2,0c0.2-0.1,0.5-0.1,0.7-0.1
		c0.2,0,0.5,0,0.7,0l0.2,0l0.2,0l0-0.2l-0.6-8.6l0-0.2l-0.2,0l-15.5,1.1l-0.2,0l0,0.2l0.1,0.4c0.1,0.4,0.1,0.8,0.2,1.3
		c0,0.4,0,0.8,0,1.2v0.4l0,0.2l0.2,0l7.3-0.5L156.7,104z"/>
	<path class="st1" d="M149.8,113.8l0,0.4l0,0.2l0.2,0l15.5-0.8l0.2,0l0-0.2l-0.1-0.4c-0.1-0.4-0.1-0.8-0.1-1.2c0-0.4,0-0.8,0-1.3
		l0-0.4l0-0.2l-0.2,0l-15.5,0.8l-0.2,0l0,0.2l0.1,0.4c0.1,0.4,0.1,0.8,0.1,1.3C149.9,112.9,149.8,113.3,149.8,113.8"/>
	<path class="st1" d="M166.7,90.7c0.5,0.3,0.9,0.5,1.1,0.7c0.2,0.2,0.4,0.3,0.5,0.4c0.1,0.1,0.1,0.2,0.1,0.3c0,0.3,0,0.5-0.1,0.6
		c-0.1,0.2-0.3,0.3-0.5,0.3c-0.1,0-0.2,0-0.3,0c-0.1,0-0.3-0.1-0.5-0.3c-0.2-0.2-0.5-0.4-0.8-0.8c-0.3-0.4-0.8-0.9-1.3-1.5l-0.2-0.9
		C165.5,90,166.2,90.4,166.7,90.7"/>
	<path class="st1" d="M162.9,129.7L162.9,129.7l-0.1,0.1l0,0.3v0.1l0.1,0c0.3,0.1,0.6,0.1,0.9,0.2c0.5,0.1,1,0.2,1.4,0.3l0.1,0
		l0.1-0.1c0.7-1.3,1.1-3.1,1-4.7c-0.1-4.4-2.5-9.1-9-9c-4.6,0.1-7.7,3.8-7.6,8.9c0,1.2,0.2,3,1.1,4.5l0,0.1l0.1,0l1.9,0.5l0.1,0
		l0.1-0.1l0.1-0.3l0-0.1l-0.1-0.1c-1-1-1.7-2.6-1.7-3.9c0-1.4,0.4-2.6,1.3-3.5c1.1-1.2,2.9-1.8,5-1.8c2.3-0.1,4.3,0.6,5.5,1.8
		c0.9,0.8,1.3,1.9,1.4,3.2C164.8,127.4,164.1,128.8,162.9,129.7"/>
	<path class="st1" d="M157.7,133.3c-2.4-0.1-4.5,0.6-6,2c-1.6,1.5-2.5,3.6-2.6,6.2c-0.1,2.7,0.7,5.1,2.3,6.9
		c1.4,1.6,3.5,2.5,5.7,2.5c4,0.2,8.3-1.9,8.6-8.2c0.1-2.8-0.6-5.2-2.2-6.9C161.9,134.3,159.9,133.3,157.7,133.3 M163.9,142.5
		c-0.1,3.2-3.3,4.5-6.3,4.3c-3.3-0.1-7-1.6-6.9-5.2c0-1.2,0.5-2.1,1.3-2.9c1.1-1,2.8-1.5,4.8-1.4c2.9,0.1,4.9,0.8,6,2.1
		C163.6,140.2,163.9,141.2,163.9,142.5"/>
	<path class="st1" d="M29.7,183.7l10.2-6.8l0.2-0.2l-0.2-0.2l-0.3-0.3c-0.2-0.3-0.5-0.6-0.7-0.9c-0.2-0.3-0.4-0.7-0.6-1l-0.2-0.3
		l-0.1-0.3l-0.2,0.2l-11.7,7.8l-0.2,0.1l0.2,0.2l4.3,6.5l0.2,0.3l0.2-0.2l0.2-0.1c0.2-0.2,0.3-0.3,0.5-0.4c0.2-0.1,0.4-0.2,0.6-0.3
		l0.2-0.1l0.3-0.1l-0.2-0.3C31.5,186.2,30.6,185.1,29.7,183.7"/>
	<path class="st1" d="M46.9,184.6l-0.2-0.2l-0.3-0.3c-0.3-0.2-0.6-0.5-0.9-0.7c-0.3-0.3-0.5-0.6-0.8-0.8l-0.3-0.3l-0.2-0.2l-0.2,0.2
		l-9.9,10.1l-0.2,0.2l0.2,0.2l0.3,0.3c0.3,0.2,0.6,0.5,0.9,0.7c0.3,0.3,0.5,0.5,0.8,0.8l0.2,0.3l0.2,0.2l0.2-0.2l9.9-10.1
		L46.9,184.6z"/>
	<path class="st1" d="M60.9,194l0.1-0.3l-0.3-0.1l-0.2-0.1c-0.2-0.1-0.4-0.2-0.6-0.3c-0.2-0.1-0.3-0.2-0.5-0.3
		c-0.1,0-0.1-0.1-0.2-0.1l-0.2-0.1l-0.2,0.1c-2.3,1.7-4.6,3.2-6.9,4.7l-1.6,1.1v-0.3c0.2-3.3,0.3-6.7,0.6-10l0-0.2l-0.2-0.1
		c-0.1,0-0.1-0.1-0.2-0.1c-0.2-0.1-0.4-0.2-0.5-0.3c-0.2-0.1-0.3-0.2-0.5-0.3c-0.1,0-0.1-0.1-0.2-0.2l-0.2-0.2l-0.2,0.2
		c-3.1,4.1-6.1,8-8.8,11.2l-0.2,0.3l0.3,0.1c0.1,0,0.2,0.1,0.3,0.1c0.2,0.1,0.4,0.1,0.6,0.3c0.2,0.1,0.4,0.3,0.5,0.4l0.2,0.2
		l0.2,0.2l0.1-0.3c1.3-2.2,2.8-4.3,4.8-7l-0.2,3.1c-0.1,2.2-0.2,4.4-0.4,6.3l0,0.2l0.2,0.1c0.2,0.1,0.4,0.2,0.6,0.3l0.1,0.1l0.2-0.1
		c2.7-1.9,5.3-3.8,7.9-5.5l-0.8,1.7c-0.9,2-1.8,4.2-2.8,6.2l-0.1,0.2l0.2,0.1l0.4,0.2c0.4,0.2,0.7,0.3,1,0.5c0.4,0.2,0.7,0.4,1,0.7
		l0.4,0.3l0.3,0.2l0.1-0.3c1.2-3.4,2.8-6.9,4.5-11L60.9,194z"/>
	<path class="st1" d="M70.1,196.2l0-0.2l-0.2,0c-0.3,0-0.5-0.1-0.7-0.1c-0.2-0.1-0.5-0.1-0.7-0.3l-0.2-0.1l-0.1,0.2l-9.3,12.4
		l-0.2,0.3l0.4,0.1c0.1,0,0.2,0,0.3,0.1c0.2,0,0.4,0.1,0.6,0.1c0.2,0,0.4,0.1,0.6,0.2c0.1,0,0.2,0.1,0.3,0.1l0.2,0.1l0.1-0.2
		c0.5-0.9,1-1.7,1.6-2.5l0.7-1.1l4.3,1.1c0.2,1.4,0.3,2.8,0.3,4.2v0.1l0,0.2l0.2,0l0.5,0.1c0.4,0.1,0.9,0.1,1.3,0.3
		c0.4,0.1,0.8,0.2,1.2,0.4l0.5,0.2l0.4,0.1l-0.1-0.4L70.1,196.2z M67.6,204.5l-2.9-0.8l2.4-3.3L67.6,204.5z"/>
	<polygon class="st1" points="83.9,206.6 83.6,206.6 83.6,206.9 83.5,209.1 83.5,209.4 83.8,209.4 88.9,209.5 89.2,209.5 
		89.2,209.3 89.3,207.1 89.3,206.8 89,206.8 	"/>
	<path class="st1" d="M109.8,198.6c-0.9-0.7-2.2-0.9-3.9-0.7l-5,0.6l-0.3,0l0,0.3l1.7,14l0,0.3l0.3-0.1l0.4-0.1
		c0.4-0.1,0.7-0.2,1.1-0.2c0.4,0,0.7-0.1,1.1-0.1l0.4,0l0.3,0l0-0.3l-0.7-5.9c3.2-0.4,6.3-1.5,5.8-5.5
		C110.9,199.9,110.5,199.1,109.8,198.6 M105.1,204.8l-0.7-5.1l1-0.1c1-0.1,1.8,0.8,2,2.3c0.1,0.8,0,2.2-1.3,2.7
		C105.8,204.7,105.4,204.7,105.1,204.8"/>
	<path class="st1" d="M124.6,207.9c-0.1-0.2-0.2-0.4-0.2-0.6c-0.1-0.2-0.1-0.4-0.1-0.7l0-0.2l0-0.3l-0.3,0.1c-1.2,0.5-2.5,1-4.2,1.5
		l-1.3-4.5l1.8-0.5c0.7-0.2,1.5-0.4,2.5-0.5l0.3,0l-0.1-0.3l-0.1-0.2c-0.1-0.2-0.2-0.4-0.2-0.6c-0.1-0.2-0.1-0.4-0.1-0.6l0-0.2
		l0-0.3L122,200c-0.8,0.4-1.6,0.7-2.4,0.9c0,0-1.3,0.4-1.8,0.5l-1.1-3.8c1.8-0.5,3.1-0.8,4.4-1l0.3-0.1l-0.2-0.3l-0.1-0.2
		c-0.1-0.2-0.2-0.4-0.3-0.6c-0.1-0.2-0.1-0.4-0.1-0.6l0-0.2l0-0.3l-0.3,0.1l-7.5,2.2l-0.3,0.1l0.1,0.3l3.9,13.5l0.1,0.3l0.2-0.1
		l7.5-2.2l0.3-0.1l-0.1-0.3L124.6,207.9z"/>
	<path class="st1" d="M137.8,200.4l-1.3-0.7c-1.4-0.8-2.9-1.7-4.4-2.5c1.5-1.4,1.8-3.2,0.9-4.9c-0.7-1.3-1.7-1.9-3.2-1.9
		c-1,0-2.2,0.7-3.1,1.1l-0.2,0.1l-3.9,2l-0.2,0.1l0.1,0.2l6.6,12.5l0.1,0.3l0.2-0.1l0.3-0.2c0.3-0.2,0.6-0.4,1-0.6
		c0.3-0.2,0.7-0.3,1-0.4l0.4-0.2l0.3-0.1l-0.1-0.3l-2.7-5.2l0.4,0.2c0.5,0.3,0.9,0.6,1.2,0.8l4.2,2.7l0.1,0.1l0.1-0.1l0.4-0.2
		c0.4-0.2,0.8-0.5,1.2-0.7c0.4-0.2,0.8-0.4,1.3-0.6l0.4-0.2l0.5-0.2l-0.4-0.3L137.8,200.4z M128.9,198l-2.3-4.4l0.1,0
		c1.2-0.7,2.1-1,2.9,0c0.3,0.4,0.4,0.6,0.5,0.8c0.5,0.9,0.6,1.6,0.4,2.3C130.1,197.1,129.6,197.6,128.9,198"/>
	<path class="st1" d="M147.6,184.9l-0.2-0.2l-5.1-5.2l-0.2-0.2l-0.2,0.2c-0.2,0.2-0.3,0.4-0.5,0.6c-0.2,0.2-0.4,0.4-0.6,0.5
		l-0.3,0.2l0.2,0.2l4.4,4.4c0.6,0.6,2.3,2.4,2.7,3.2c0.7,1.7,0.5,2.8-0.8,4.1c-0.6,0.6-1.3,0.9-2.1,1c-0.9,0-1.4-0.3-2.3-0.9
		c-0.7-0.5-1.7-1.5-2.4-2.3l-0.4-0.4l-4.1-4.2l-0.2-0.2l-0.2,0.2l-0.2,0.3c-0.3,0.3-0.5,0.6-0.8,0.9c-0.3,0.3-0.5,0.5-0.8,0.7
		l-0.3,0.3l-0.2,0.2l0.2,0.2l5.9,6c0.6,0.6,1.4,1.2,2.1,1.6c2.9,1.6,5.6-0.4,7-1.8c1.2-1.1,1.9-2.4,2.1-3.7
		C150.6,188.2,149.1,186.6,147.6,184.9"/>
	<path class="st1" d="M135.3,179.8c-0.1-0.9-0.2-1.5-0.2-2c0-0.5,0-0.8,0.1-1c0.1-0.2,0.1-0.3,0.3-0.5c0.3-0.3,0.6-0.5,0.9-0.5
		c0.3,0,0.6,0.1,0.8,0.3c0.1,0.1,0.2,0.2,0.3,0.4c0.1,0.2,0.1,0.4,0.1,0.8c0,0.4-0.1,1-0.2,1.7c-0.1,0.8-0.3,1.8-0.5,3.1l-0.9,1.1
		C135.7,181.9,135.5,180.7,135.3,179.8"/>
	<path class="st0" d="M177,76.7c-1.9-11.7-4-20.2-6.7-27.7c-6.8-18.7-17.6-31.7-33-39.8c-12.5-6.6-30.1-9.7-51-9.1l-1.4,0
		c-7.3,0.2-19.4,0.4-33.7,5.2c-4.8,1.4-8.7,3.6-13.3,6.2C28.1,17.1,20.3,25,14.3,35.6c-4.9,8.7-8.6,19-10.9,30.6
		c-1,4.8-1.7,10.4-2.4,17.9c-1,16.3-1.3,30.5-0.8,43.5c0.9,34.8,9.4,60.8,25.2,77.3c8.5,8.6,17.6,14.2,28.6,17.6
		c10.3,3.2,22.6,4.6,38.7,4.5c14.4-0.4,29.5-1.7,42.9-8.1c6.6-3.2,12.5-7.4,17.4-12.5c10.1-10.4,18.1-25.4,21.5-40.1
		C181.4,137,179,97.6,177,76.7 M167.4,163.9c-3.3,14.2-11,28.7-19.7,36.9c-5.3,5.1-10.4,8.8-15.6,11.3c-12.1,5.9-26.2,7.1-39.5,7.5
		c-13.4-0.1-24.2-0.8-35.9-4c-11.3-3.7-18.3-7.9-25.8-15.6c-5.9-6.1-10.3-13.2-14.2-23.1c-5.3-13.4-8.2-30.2-8.7-49.9
		c-0.5-12.5-0.2-26.1,0.8-41.8c1.7-19,5.7-33.8,12.2-45.4C26.2,30.2,33.1,23,42,17.9c3.4-1.9,7.4-4.1,11.9-5.5
		C67.3,8.3,77.3,8,84,7.7l2.2-0.1c19.7-0.6,36.9,2.4,47.1,8.1c14.2,7.5,24,19.4,30,36.2c2.9,8.1,4.6,17.5,6.1,26.3
		C171.7,103,173.3,138.1,167.4,163.9"/>
	<path class="st0" d="M144.8,107.8c-0.1-3.7-0.2-7.6-0.4-11.5c-1.3-16.7-2.8-31.4-9-42.1c-11.2-18.9-34.4-18.9-45.5-19
		c0,0-2.4,0-2.4,0c-24,0.3-38.5,7.4-45.6,22.4c-6.5,13.8-7,31.5-7.4,47.1c0,28.7,0.5,48.7,7.8,64.5c10.2,21.1,31.8,23.3,51.6,22.7
		c14.1-0.8,21.4-1.8,31.9-8.3c5-3.5,8.8-8,11.6-13.6c2.2-4.9,3.9-10.5,5-16.6c1.9-10.8,2.2-22.4,2.5-32.7l0.1-5
		C145,115.6,144.8,107.8,144.8,107.8 M140,115.7c0-0.1-0.2,5.9-0.2,5.9c-0.2,9.4-0.4,20.1-2.1,30.3c-2.2,13.4-6.9,22-15.1,27.9
		c-9.7,6.1-16.7,6.7-29.3,7.4c-19.1,0.5-38.1-1.7-47-20.8c-6.6-15.5-7.1-35.2-7.1-61.3c0,0,0-0.2,0-0.2c0.4-15.5,0.9-31.6,6.7-44.4
		C51.9,46.7,65.1,40.2,87.4,40l2.6,0c10.9,0,31.3,0,41.2,17.1c5.9,10.4,7.1,26.2,8.1,40.1c0.3,4.1,0.4,8.1,0.5,12
		C139.9,111.4,139.9,113.6,140,115.7"/>
	<polygon class="st0" points="78.4,81.5 83.1,70.9 77.7,74.8 76.8,69 73.9,73.7 71.9,68 69.9,73.6 66.5,69.2 66.1,74.8 60.7,70.8 
		65.3,81.5 	"/>
	<polygon class="st0" points="113.6,81.5 118.3,70.9 112.9,74.8 112,69 109.1,73.7 107.1,68 105.1,73.6 101.7,69.2 101.3,74.8 
		95.9,70.8 100.6,81.5 	"/>
	<polygon class="st0" points="96,62.5 100.8,51.9 95.3,55.9 94.4,50.1 91.5,54.7 89.5,49.1 87.5,54.7 84.1,50.2 83.7,55.8 
		78.3,51.9 83,62.5 	"/>
</g>
<g>
	<defs>
		<path id="SVGID_3_" d="M378.7,164.8h23.4V17.1h-23.4V164.8z M549.4,17.1v74.5c0,6.7-0.7,13.3-2,19.8c-1.2,6.2-3.4,11.8-6.5,16.7
			c-3,4.7-7,8.5-12.1,11.4c-5,2.9-11.5,4.3-19.2,4.3c-7.6,0-14-1.4-18.9-4.2c-5-2.9-9-6.5-12-11.2c-3.1-4.8-5.3-10.3-6.6-16.6
			c-1.3-6.5-2-13.3-2-20.2V17.1h-23.2v74.5c0,9.1,1,18.2,3,26.8c2.1,8.9,5.6,16.9,10.5,23.8c5,7.1,11.6,12.9,19.7,17.2
			c8.1,4.3,18.1,6.5,29.8,6.5c11.4,0,21.2-2.1,29.2-6.2c8.1-4.1,14.7-9.7,19.7-16.7c4.9-6.8,8.6-14.8,10.8-23.8
			c2.2-8.7,3.3-18,3.3-27.7V17.1H549.4z M640.8,38.9h38c3.1,0,5.9,0.6,8.7,2c2.9,1.3,5.3,3.1,7.4,5.5c2.1,2.4,3.8,5.3,5.1,8.5
			c1.3,3.2,1.9,6.7,1.9,10.4c0,3.6-0.6,7.1-1.7,10.4c-1.1,3.3-2.7,6.2-4.6,8.6c-1.9,2.4-4.2,4.3-6.9,5.7c-2.6,1.4-5.4,2-8.7,2h-39.2
			V38.9z M617.4,17.1v147.8h23.4v-50.9h39.8c6.7,0,12.9-1.4,18.4-4.2c5.4-2.7,10.1-6.4,14-10.9c3.9-4.4,6.9-9.6,9.1-15.4
			c2.1-5.8,3.2-11.9,3.2-18.1c0-5.9-1.2-11.8-3.5-17.6c-2.3-5.7-5.5-10.8-9.4-15.3c-4-4.5-8.9-8.2-14.4-11
			c-5.7-2.9-11.9-4.3-18.6-4.3H617.4z M253.6,22.9c-8.7,4.4-16.2,10.1-22.1,17c-5.9,6.9-10.5,14.9-13.6,23.6
			c-3.1,8.7-4.7,17.6-4.7,26.4c0,9.4,1.7,18.7,5.1,27.7c3.4,9,8.1,17.1,14.2,24.2c6.1,7.1,13.4,13,21.9,17.4
			c8.6,4.5,18.1,6.8,28.3,6.8c5.7,0,11.6-0.8,17.5-2.3c5.9-1.5,11.5-3.8,16.8-6.7c5.3-2.9,10.2-6.6,14.5-10.8
			c4.5-4.4,8-9.5,10.4-15.3l1.8-4.2l-19.8-10.2l-2.2,4.5c-1.9,4-4.4,7.4-7.2,10.2c-2.9,2.8-6.1,5.3-9.5,7.2c-3.4,1.9-7,3.3-10.6,4.2
			c-3.7,0.9-7.3,1.3-10.8,1.3c-6.7,0-12.6-1.4-18.3-4.2c-5.7-2.9-10.6-6.8-14.8-11.6c-4.2-4.9-7.6-10.7-10-17.1
			c-2.4-6.4-3.7-13.2-3.7-20.2c0-6.4,1-12.9,3.1-19.2c2-6.2,5-11.9,9-16.8c3.9-4.9,8.8-8.9,14.5-11.9c5.6-3,12.2-4.5,19.6-4.5
			c3.4,0,6.9,0.4,10.4,1.1c3.4,0.7,6.8,2,10,3.7c3.2,1.7,6.3,4,9.1,6.8c2.8,2.7,5.1,6.1,7.1,10.1l2.4,4.9l19-11.8l-1.8-4
			c-4.5-9.8-11.6-17.8-21.2-23.8c-9.5-6.1-21-9.1-34.2-9.1C272.5,16.3,262.4,18.5,253.6,22.9"/>
	</defs>
	<clipPath id="SVGID_4_">
		<use xlink:href="#SVGID_3_"  style="overflow:visible;"/>
	</clipPath>
	
		<linearGradient id="SVGID_5_" gradientUnits="userSpaceOnUse" x1="-1.495056e-02" y1="227.1736" x2="0.8238" y2="227.1736" gradientTransform="matrix(318.2793 -169.7489 -169.7489 -318.2793 38910.2617 72460.6094)">
		<stop  offset="0" style="stop-color:#1F2A59"/>
		<stop  offset="1" style="stop-color:#344B9F"/>
	</linearGradient>
	<polygon class="st2" points="151,49.4 611.9,-196.4 787.5,132.9 326.6,378.7 	"/>
</g>
<g>
	<path d="M230.2,177.3c1.8,0.8,3.3,2,4.5,3.4c1.2,1.4,1.9,3,2.3,4.8c0.1,0.2,0.1,0.4,0.1,0.7c0,0.2,0,0.3-0.1,0.3
		c-0.1,0.1-0.2,0.1-0.4,0.1l-5.8,0.4c-0.3,0-0.4,0-0.5-0.1c-0.1-0.1-0.1-0.3-0.2-0.5c-0.3-1.6-0.9-2.8-1.9-3.7
		c-0.9-0.9-2.2-1.4-3.8-1.4c-4.6,0-6.9,3.7-6.9,11c0,3.8,0.6,6.6,1.7,8.3c1.1,1.7,2.9,2.6,5.2,2.6c1.7,0,3.2-0.4,4.4-1.3
		c1.2-0.9,2.1-2.3,2.9-4.2c0.1-0.2,0.3-0.3,0.6-0.3c0.2,0,0.3,0,0.4,0l4.2,0.9c0.4,0.1,0.6,0.5,0.5,1.1c-0.3,1.2-1,2.6-2,4
		c-1,1.4-2.5,2.7-4.4,3.7c-1.9,1.1-4.1,1.6-6.8,1.6c-2.9,0-5.5-0.7-7.7-2.1c-2.2-1.4-3.9-3.3-5-5.8c-1.2-2.5-1.8-5.4-1.8-8.7
		c0-3.3,0.6-6.1,1.8-8.5c1.2-2.4,2.9-4.3,5-5.6c2.2-1.3,4.8-2,7.7-2C226.4,176.1,228.4,176.5,230.2,177.3z"/>
	<path d="M250.2,202.8c1.1,1,2.4,1.5,4,1.5c1,0,2-0.2,2.9-0.7c0.9-0.4,1.8-1.2,2.6-2.2c0.1-0.1,0.2-0.2,0.3-0.2c0.1,0,0.2,0,0.4,0.1
		l3.1,1.3c0.2,0.1,0.3,0.2,0.3,0.4c0,0.1-0.1,0.3-0.2,0.4c-1.4,1.9-2.8,3.3-4.4,4.1c-1.6,0.8-3.5,1.2-5.9,1.2c-2.2,0-4.2-0.5-6-1.5
		c-1.8-1-3.2-2.3-4.2-4.1c-1-1.7-1.5-3.7-1.5-5.9c0-2.4,0.5-4.5,1.5-6.4c1-1.8,2.4-3.3,4.2-4.3s3.7-1.5,5.8-1.5
		c2.2,0,4.1,0.5,5.8,1.4c1.7,1,3,2.3,3.9,4.1s1.4,3.9,1.4,6.4c0,0.4,0,0.6-0.1,0.8c-0.1,0.1-0.3,0.2-0.6,0.3h-14.6
		c-0.3,0-0.5,0.2-0.5,0.7C248.6,200.5,249.2,201.8,250.2,202.8z M257.2,194.6c0.3,0,0.5,0,0.6-0.1c0.1-0.1,0.1-0.2,0.1-0.5
		c0-0.7-0.2-1.5-0.5-2.2c-0.3-0.7-0.8-1.4-1.5-1.8c-0.7-0.5-1.5-0.7-2.4-0.7c-1.4,0-2.6,0.5-3.5,1.5c-0.9,1-1.4,2.3-1.3,3.9
		L257.2,194.6z"/>
	<path d="M269.7,208.1c-0.1-0.1-0.2-0.3-0.2-0.7v-21c0-0.5,0.2-0.8,0.7-0.8h5.2c0.4,0,0.6,0.2,0.6,0.7v2.1c0,0.2,0.1,0.3,0.2,0.3
		c0.1,0,0.2-0.1,0.3-0.2c1.2-1.1,2.3-2,3.5-2.6c1.2-0.6,2.4-0.9,3.7-0.9c2.1,0,3.7,0.6,5,1.8c1.2,1.2,1.8,2.9,1.8,4.9v15.3
		c0,0.7-0.3,1-1,1h-4.8c-0.3,0-0.5-0.1-0.6-0.2c-0.1-0.1-0.2-0.3-0.2-0.7V193c0-1-0.3-1.7-0.8-2.2c-0.5-0.5-1.3-0.8-2.3-0.8
		c-0.9,0-1.6,0.2-2.4,0.6c-0.7,0.4-1.5,1.1-2.3,2v14.7c0,0.3-0.1,0.6-0.3,0.8c-0.2,0.2-0.5,0.2-0.9,0.2h-4.6
		C270.1,208.3,269.9,208.2,269.7,208.1z"/>
	<path d="M306.1,190.1c-0.3,0-0.5,0.2-0.5,0.5V201c0,1,0.2,1.7,0.7,2.1c0.5,0.4,1.2,0.6,2.2,0.6h2.3c0.2,0,0.4,0.1,0.5,0.2
		c0.1,0.1,0.2,0.3,0.2,0.5l0,2.6c0,0.6-0.3,0.9-0.9,1c-1.2,0.2-2.9,0.3-5.1,0.3c-2,0-3.6-0.5-4.7-1.4c-1.1-0.9-1.7-2.3-1.7-4.1v-12
		c0-0.4-0.2-0.6-0.6-0.6h-2.6c-0.5,0-0.8-0.2-0.8-0.7v-3.2c0-0.4,0.3-0.6,0.8-0.6h3c0.2,0,0.4-0.2,0.4-0.5l0.6-6.5
		c0.1-0.5,0.3-0.7,0.6-0.7h4.7c0.2,0,0.4,0.1,0.5,0.2c0.1,0.1,0.2,0.3,0.2,0.6v6.4c0,0.3,0.1,0.4,0.4,0.4h4.5c0.5,0,0.8,0.2,0.8,0.7
		v3.2c0,0.5-0.3,0.7-0.9,0.7H306.1z"/>
	<path d="M316.6,207.4v-21c0-0.5,0.2-0.8,0.7-0.8h5c0.5,0,0.7,0.2,0.7,0.7v2.5c0,0.1,0,0.2,0.1,0.3c0.1,0.1,0.1,0.1,0.2,0.1
		c0.1,0,0.2-0.1,0.3-0.2c0.9-1.1,1.9-2.1,3-2.8c1.2-0.7,2.3-1,3.3-1c1,0,1.5,0.2,1.5,0.7v5c0,0.2-0.1,0.4-0.2,0.5
		c-0.1,0.1-0.3,0.1-0.5,0.1c-0.9-0.2-1.9-0.3-3-0.3c-0.7,0-1.4,0.2-2.2,0.5s-1.3,0.8-1.8,1.4c-0.5,0.6-0.7,1.2-0.7,1.8v12.5
		c0,0.7-0.4,1-1.1,1h-4.6C316.9,208.3,316.6,208,316.6,207.4z"/>
	<path d="M340.2,207.3c-1.7-1-3.1-2.4-4.1-4.1c-1-1.8-1.5-3.8-1.5-6c0-2.3,0.5-4.4,1.5-6.2c1-1.8,2.4-3.2,4.1-4.2s3.7-1.5,5.9-1.5
		c2.3,0,4.3,0.5,6,1.5c1.7,1,3.1,2.4,4.1,4.2c1,1.8,1.4,3.8,1.4,6.1c0,2.3-0.5,4.3-1.5,6c-1,1.8-2.3,3.2-4.1,4.2
		c-1.7,1-3.7,1.5-6,1.5C343.9,208.7,341.9,208.2,340.2,207.3z M349.8,202.5c0.8-1.2,1.2-3.1,1.2-5.5c0-2.5-0.4-4.4-1.2-5.6
		c-0.8-1.3-2-1.9-3.6-1.9c-1.6,0-2.8,0.6-3.6,1.9c-0.8,1.3-1.2,3.2-1.2,5.6c0,2.4,0.4,4.3,1.2,5.5c0.8,1.3,2,1.9,3.6,1.9
		C347.8,204.4,349,203.7,349.8,202.5z"/>
	<path d="M388.2,207.4v-1.2c0-0.2-0.1-0.3-0.2-0.3c-0.1,0-0.2,0.1-0.4,0.2c-0.8,0.8-1.7,1.4-2.7,1.9s-2.2,0.7-3.5,0.7
		c-2.7,0-4.9-1-6.5-3c-1.6-2-2.5-4.9-2.5-8.6c0-2.3,0.4-4.4,1.3-6.2c0.8-1.8,2-3.2,3.4-4.2c1.4-1,3-1.5,4.7-1.5c1.1,0,2.1,0.2,3,0.6
		c0.9,0.4,1.8,0.9,2.6,1.7c0.2,0.1,0.3,0.2,0.4,0.2c0.2,0,0.3-0.2,0.3-0.6v-9.8c0-0.5,0.2-0.8,0.7-0.8h5.2c0.2,0,0.4,0.1,0.5,0.2
		c0.1,0.1,0.2,0.3,0.2,0.6v30.1c0,0.3-0.1,0.5-0.2,0.7c-0.1,0.1-0.4,0.2-0.8,0.2h-4.6C388.5,208.3,388.2,208,388.2,207.4z
		 M386.1,189.9c-0.6-0.3-1.4-0.5-2.2-0.5c-1.5,0-2.7,0.6-3.6,1.9c-0.9,1.2-1.3,3.2-1.3,5.8c0,2.6,0.4,4.6,1.3,5.8
		c0.9,1.2,2,1.8,3.6,1.8c1.1,0,2.1-0.4,3-1.1c0.8-0.8,1.2-1.6,1.2-2.6v-9.3C387.4,190.8,386.8,190.3,386.1,189.9z"/>
	<path d="M408.3,202.8c1.1,1,2.4,1.5,4,1.5c1,0,2-0.2,2.9-0.7c0.9-0.4,1.7-1.2,2.6-2.2c0.1-0.1,0.2-0.2,0.3-0.2c0.1,0,0.2,0,0.4,0.1
		l3.1,1.3c0.2,0.1,0.3,0.2,0.3,0.4c0,0.1-0.1,0.3-0.2,0.4c-1.4,1.9-2.8,3.3-4.4,4.1c-1.6,0.8-3.5,1.2-5.9,1.2c-2.2,0-4.2-0.5-6-1.5
		c-1.8-1-3.2-2.3-4.2-4.1c-1-1.7-1.5-3.7-1.5-5.9c0-2.4,0.5-4.5,1.5-6.4c1-1.8,2.4-3.3,4.2-4.3s3.7-1.5,5.8-1.5
		c2.2,0,4.1,0.5,5.8,1.4s3,2.3,3.9,4.1c0.9,1.8,1.4,3.9,1.4,6.4c0,0.4,0,0.6-0.1,0.8c-0.1,0.1-0.3,0.2-0.6,0.3h-14.6
		c-0.3,0-0.5,0.2-0.5,0.7C406.7,200.5,407.3,201.8,408.3,202.8z M415.3,194.6c0.3,0,0.5,0,0.6-0.1c0.1-0.1,0.1-0.2,0.1-0.5
		c0-0.7-0.2-1.5-0.5-2.2c-0.3-0.7-0.8-1.4-1.5-1.8c-0.7-0.5-1.5-0.7-2.4-0.7c-1.4,0-2.6,0.5-3.5,1.5c-0.9,1-1.4,2.3-1.3,3.9
		L415.3,194.6z"/>
	<path d="M444.7,181.8c0,0.7-0.4,1.1-1.2,1.1h-4.6c-0.3,0-0.6-0.1-0.7-0.2c-0.1-0.2-0.2-0.4-0.2-0.8v-4.5c0-0.6,0.2-0.9,0.7-0.9h5.3
		c0.2,0,0.4,0.1,0.5,0.2s0.2,0.3,0.2,0.6V181.8z M444.6,207.3c0,0.4-0.1,0.6-0.3,0.8c-0.2,0.2-0.5,0.2-0.9,0.2h-4.5
		c-0.3,0-0.6-0.1-0.7-0.2c-0.1-0.1-0.2-0.4-0.2-0.7v-21c0-0.5,0.2-0.8,0.7-0.8h5.2c0.4,0,0.6,0.2,0.6,0.7V207.3z"/>
	<path d="M451.1,208.1c-0.1-0.1-0.2-0.3-0.2-0.7v-21c0-0.5,0.2-0.8,0.7-0.8h5.2c0.4,0,0.6,0.2,0.6,0.7v2.1c0,0.2,0.1,0.3,0.2,0.3
		c0.1,0,0.2-0.1,0.3-0.2c1.2-1.1,2.3-2,3.5-2.6c1.2-0.6,2.4-0.9,3.7-0.9c2.1,0,3.7,0.6,5,1.8c1.2,1.2,1.8,2.9,1.8,4.9v15.3
		c0,0.7-0.3,1-1,1h-4.8c-0.3,0-0.5-0.1-0.6-0.2c-0.1-0.1-0.2-0.3-0.2-0.7V193c0-1-0.3-1.7-0.8-2.2c-0.5-0.5-1.3-0.8-2.3-0.8
		c-0.9,0-1.6,0.2-2.4,0.6c-0.7,0.4-1.5,1.1-2.3,2v14.7c0,0.3-0.1,0.6-0.3,0.8c-0.2,0.2-0.5,0.2-0.9,0.2h-4.6
		C451.5,208.3,451.2,208.2,451.1,208.1z"/>
	<path d="M499.2,185.9c0.1,0.2,0.1,0.4,0,0.7l-8.5,20.8c-0.3,0.6-0.7,0.9-1.4,0.9h-3c-0.7,0-1.1-0.3-1.4-0.9l-8.4-20.8
		c-0.1-0.2-0.1-0.3-0.1-0.3c0-0.2,0.1-0.4,0.2-0.5c0.1-0.1,0.3-0.2,0.5-0.2h5.4c0.5,0,0.8,0.2,0.9,0.7l4.9,12.6
		c0.1,0.3,0.3,0.4,0.3,0.4c0.1,0,0.2-0.1,0.3-0.4l4.8-12.6c0.2-0.5,0.5-0.7,0.9-0.7h3.7C498.9,185.6,499.1,185.7,499.2,185.9z"/>
	<path d="M510.2,202.8c1.1,1,2.4,1.5,4,1.5c1,0,2-0.2,2.9-0.7c0.9-0.4,1.7-1.2,2.6-2.2c0.1-0.1,0.2-0.2,0.3-0.2c0.1,0,0.2,0,0.4,0.1
		l3.1,1.3c0.2,0.1,0.3,0.2,0.3,0.4c0,0.1-0.1,0.3-0.2,0.4c-1.4,1.9-2.8,3.3-4.4,4.1c-1.6,0.8-3.5,1.2-5.9,1.2c-2.2,0-4.2-0.5-6-1.5
		c-1.8-1-3.2-2.3-4.2-4.1c-1-1.7-1.5-3.7-1.5-5.9c0-2.4,0.5-4.5,1.5-6.4c1-1.8,2.4-3.3,4.2-4.3c1.8-1,3.7-1.5,5.8-1.5
		c2.2,0,4.1,0.5,5.8,1.4s3,2.3,3.9,4.1c0.9,1.8,1.4,3.9,1.4,6.4c0,0.4,0,0.6-0.1,0.8c-0.1,0.1-0.3,0.2-0.6,0.3h-14.6
		c-0.3,0-0.5,0.2-0.5,0.7C508.6,200.5,509.1,201.8,510.2,202.8z M517.2,194.6c0.3,0,0.5,0,0.6-0.1c0.1-0.1,0.1-0.2,0.1-0.5
		c0-0.7-0.2-1.5-0.5-2.2c-0.3-0.7-0.8-1.4-1.5-1.8c-0.7-0.5-1.5-0.7-2.4-0.7c-1.4,0-2.6,0.5-3.5,1.5c-0.9,1-1.4,2.3-1.3,3.9
		L517.2,194.6z"/>
	<path d="M538.4,189.2c-1.1,0-2,0.2-2.7,0.6c-0.7,0.4-1.1,1-1.1,1.7c0,0.4,0.2,0.8,0.5,1.1c0.3,0.3,1,0.6,1.9,0.8l4.9,1.2
		c2.3,0.5,3.9,1.4,5,2.6c1.1,1.2,1.6,2.6,1.6,4.2c0,2.3-0.9,4-2.8,5.4c-1.9,1.3-4.4,2-7.4,2c-2.5,0-4.6-0.4-6.4-1.3
		c-1.8-0.9-3.1-2-3.8-3.4c-0.1-0.2-0.2-0.4-0.2-0.6c0-0.2,0.1-0.3,0.3-0.4l2.9-1.5c0.2-0.1,0.4-0.2,0.6-0.2c0.2,0,0.3,0.1,0.5,0.2
		c0.6,0.9,1.4,1.6,2.3,2.1c0.9,0.5,2.1,0.8,3.6,0.8c1.3,0,2.4-0.2,3.3-0.6c0.8-0.4,1.3-1,1.3-1.8c0-0.5-0.2-0.9-0.6-1.3
		c-0.4-0.3-1.2-0.6-2.2-0.9l-4.4-0.9c-4.3-0.9-6.5-3.1-6.5-6.5c0-1.4,0.4-2.7,1.2-3.8s1.9-2,3.4-2.6c1.5-0.6,3.2-0.9,5.1-0.9
		c2.1,0,3.9,0.4,5.6,1.2c1.6,0.8,2.8,1.7,3.5,2.9c0.2,0.2,0.3,0.4,0.3,0.6c0,0.2-0.1,0.3-0.3,0.4l-3.1,1.5c-0.1,0.1-0.2,0.1-0.3,0.1
		c-0.3,0-0.5-0.1-0.6-0.3C542.3,190,540.6,189.2,538.4,189.2z"/>
	<path d="M563.3,190.1c-0.3,0-0.5,0.2-0.5,0.5V201c0,1,0.2,1.7,0.7,2.1s1.2,0.6,2.2,0.6h2.3c0.2,0,0.4,0.1,0.5,0.2
		c0.1,0.1,0.2,0.3,0.2,0.5l0,2.6c0,0.6-0.3,0.9-0.9,1c-1.2,0.2-2.9,0.3-5.1,0.3c-2,0-3.6-0.5-4.7-1.4c-1.1-0.9-1.7-2.3-1.7-4.1v-12
		c0-0.4-0.2-0.6-0.6-0.6H553c-0.5,0-0.8-0.2-0.8-0.7v-3.2c0-0.4,0.3-0.6,0.8-0.6h3c0.2,0,0.4-0.2,0.4-0.5l0.6-6.5
		c0.1-0.5,0.3-0.7,0.6-0.7h4.7c0.2,0,0.4,0.1,0.5,0.2c0.1,0.1,0.2,0.3,0.2,0.6v6.4c0,0.3,0.1,0.4,0.4,0.4h4.5c0.5,0,0.8,0.2,0.8,0.7
		v3.2c0,0.5-0.3,0.7-0.9,0.7H563.3z"/>
	<path d="M580.4,181.8c0,0.7-0.4,1.1-1.2,1.1h-4.6c-0.3,0-0.6-0.1-0.7-0.2c-0.1-0.2-0.2-0.4-0.2-0.8v-4.5c0-0.6,0.2-0.9,0.7-0.9h5.3
		c0.2,0,0.4,0.1,0.5,0.2s0.2,0.3,0.2,0.6V181.8z M580.4,207.3c0,0.4-0.1,0.6-0.3,0.8c-0.2,0.2-0.5,0.2-0.9,0.2h-4.5
		c-0.3,0-0.6-0.1-0.7-0.2c-0.1-0.1-0.2-0.4-0.2-0.7v-21c0-0.5,0.2-0.8,0.7-0.8h5.2c0.4,0,0.6,0.2,0.6,0.7V207.3z"/>
	<path d="M610.5,185.5v2.9c0,0.8-0.3,1.1-1,1c-0.4-0.1-0.8-0.1-1.2-0.1c-0.2,0-0.5,0-0.8,0.1c-0.7,0.1-1,0.4-0.9,1
		c0.3,0.8,0.4,1.4,0.4,1.9c0,1.3-0.4,2.5-1.2,3.6c-0.8,1.1-2,1.9-3.5,2.5c-1.6,0.6-3.4,0.9-5.6,0.9c-1.6,0-2.8,0.1-3.5,0.4
		c-0.8,0.3-1.1,0.6-1.1,1c0,0.4,0.2,0.6,0.6,0.8s1.1,0.3,2.1,0.3l6.1,0.3c2.8,0.2,4.9,0.8,6.3,1.9s2.1,2.5,2.1,4.3
		c0,2.2-1.1,4-3.2,5.4c-2.1,1.3-5.1,2-9,2c-8.3,0-12.5-1.8-12.5-5.5c0-0.9,0.4-1.7,1.1-2.3s1.7-1.2,3-1.7c0.2-0.1,0.3-0.1,0.3-0.2
		s-0.1-0.2-0.3-0.3c-1.7-0.8-2.5-1.9-2.5-3.2c0-0.8,0.4-1.5,1.1-2.2c0.8-0.7,1.8-1.2,3-1.7c0.3-0.2,0.4-0.3,0.1-0.5
		c-2.8-1.3-4.2-3.2-4.2-5.8c0-2.2,0.9-3.9,2.8-5.2c1.9-1.3,4.5-1.9,8-1.9c2.9,0,5.2,0.6,6.9,1.9c0.2,0.1,0.4,0.2,0.6,0.2
		c0.2,0,0.4-0.1,0.6-0.3c0.5-0.7,1.3-1.2,2.1-1.7c0.9-0.5,1.7-0.8,2.3-0.8C610.2,184.6,610.5,184.9,610.5,185.5z M593.5,207
		c-0.9-0.1-1.7,0.2-2.4,0.6s-1,1.1-1,1.8c0,1.1,0.6,1.9,1.8,2.4c1.2,0.5,3.1,0.8,5.7,0.8c1.9,0,3.4-0.3,4.4-0.8
		c1-0.5,1.5-1.3,1.5-2.2c0-0.7-0.3-1.2-0.9-1.6c-0.6-0.4-1.4-0.6-2.5-0.7L593.5,207z M599.9,195.1c0.7-0.7,1.1-1.5,1.1-2.6
		c0-1.2-0.4-2.1-1.1-2.8s-1.8-1-3.3-1c-1.4,0-2.5,0.4-3.2,1.1c-0.8,0.7-1.2,1.7-1.2,2.8c0,1.1,0.4,2,1.2,2.6c0.8,0.7,1.9,1,3.2,1
		C598.1,196.1,599.2,195.8,599.9,195.1z"/>
	<path d="M621.1,208.7c-2.1,0-3.8-0.6-5.1-1.7c-1.3-1.2-1.9-2.7-1.9-4.5c0-2.4,1.1-4.3,3.3-5.8c2.2-1.5,5.2-2.2,9.1-2.3l1.5-0.1
		c0.2,0,0.3,0,0.4-0.2c0.1-0.1,0.2-0.2,0.2-0.5v-0.9c0-1.1-0.3-2-0.9-2.6c-0.6-0.6-1.5-0.9-2.7-0.9c-2,0-3.5,0.9-4.5,2.6
		c-0.1,0.3-0.3,0.4-0.6,0.4c-0.1,0-0.3,0-0.4,0l-4.3-1c-0.3-0.1-0.4-0.2-0.4-0.5c0-0.2,0.1-0.4,0.2-0.6c0.7-1.7,1.9-2.9,3.7-3.7
		c1.8-0.8,3.9-1.2,6.5-1.2c3.4,0,5.9,0.6,7.4,1.9c1.5,1.2,2.3,3,2.3,5.3v15c0,0.3-0.1,0.6-0.2,0.7c-0.1,0.1-0.3,0.2-0.6,0.2h-4.4
		c-0.3,0-0.5-0.1-0.6-0.3c-0.1-0.2-0.2-0.5-0.3-0.9l0-0.9c0-0.3-0.1-0.4-0.3-0.4c-0.1,0-0.3,0.1-0.6,0.3
		C626,207.9,623.7,208.7,621.1,208.7z M628.6,197.6c-0.1-0.1-0.3-0.2-0.5-0.2l-1.2,0.1c-1.7,0.1-3.1,0.5-4.4,1.2s-1.9,1.7-1.9,2.9
		c0,0.9,0.3,1.5,0.9,2c0.6,0.5,1.4,0.8,2.5,0.8c1.3,0,2.4-0.4,3.3-1.2c0.9-0.7,1.4-1.5,1.4-2.3v-2.8
		C628.7,197.9,628.7,197.7,628.6,197.6z"/>
	<path d="M657.7,187.1c1.7,1.3,2.8,2.8,3.4,4.6c0.1,0.2,0.1,0.4,0.1,0.4c0,0.3-0.2,0.4-0.6,0.5L656,193h-0.1c-0.3,0-0.4-0.2-0.5-0.5
		c-0.5-1-1-1.8-1.6-2.3c-0.5-0.5-1.3-0.8-2.2-0.8c-1.5,0-2.8,0.6-3.6,1.9c-0.9,1.3-1.3,3.1-1.3,5.6c0,2.5,0.5,4.4,1.4,5.7
		c0.9,1.3,2.2,1.9,3.9,1.9c1.2,0,2.1-0.3,2.9-0.9c0.7-0.6,1.5-1.5,2.2-2.7c0.1-0.1,0.2-0.2,0.3-0.2c0.1,0,0.2,0,0.5,0l3.2,0.7
		c0.3,0,0.4,0.2,0.4,0.4l-0.1,0.4c-0.6,1.7-1.7,3.2-3.3,4.5c-1.6,1.4-3.8,2-6.5,2c-2.2,0-4.2-0.5-5.9-1.5c-1.7-1-3.1-2.4-4-4.1
		c-1-1.8-1.5-3.8-1.5-6.1c0-2.3,0.5-4.4,1.5-6.2c1-1.8,2.3-3.2,4.1-4.2c1.7-1,3.7-1.5,5.9-1.5C653.9,185.2,656,185.8,657.7,187.1z"
		/>
	<path d="M672.8,181.8c0,0.7-0.4,1.1-1.2,1.1h-4.6c-0.3,0-0.6-0.1-0.7-0.2c-0.1-0.2-0.2-0.4-0.2-0.8v-4.5c0-0.6,0.2-0.9,0.7-0.9h5.3
		c0.2,0,0.4,0.1,0.5,0.2s0.2,0.3,0.2,0.6V181.8z M672.8,207.3c0,0.4-0.1,0.6-0.3,0.8c-0.2,0.2-0.5,0.2-0.9,0.2h-4.5
		c-0.3,0-0.6-0.1-0.7-0.2c-0.1-0.1-0.2-0.4-0.2-0.7v-21c0-0.5,0.2-0.8,0.7-0.8h5.2c0.4,0,0.6,0.2,0.6,0.7V207.3z"/>
	<path d="M683.5,207.3c-1.7-1-3.1-2.4-4-4.1c-1-1.8-1.5-3.8-1.5-6c0-2.3,0.5-4.4,1.5-6.2c1-1.8,2.4-3.2,4.1-4.2
		c1.8-1,3.7-1.5,5.9-1.5c2.3,0,4.3,0.5,6,1.5c1.7,1,3.1,2.4,4,4.2c1,1.8,1.4,3.8,1.4,6.1c0,2.3-0.5,4.3-1.5,6
		c-1,1.8-2.3,3.2-4.1,4.2c-1.7,1-3.7,1.5-6,1.5S685.3,208.2,683.5,207.3z M695.6,179.4c0.1,0.2,0.1,0.3,0.1,0.4
		c0,0.3-0.2,0.6-0.7,0.7l-9.9,2.7c-0.1,0-0.2,0-0.4,0c-0.2,0-0.3,0-0.4-0.1s-0.2-0.2-0.3-0.4l-0.5-1.5l-0.1-0.3
		c0-0.3,0.1-0.4,0.3-0.5l10.1-4.2c0.1,0,0.1,0,0.2,0c0.3,0,0.4,0.1,0.5,0.4L695.6,179.4z M693.1,202.5c0.8-1.2,1.2-3.1,1.2-5.5
		c0-2.5-0.4-4.4-1.2-5.6c-0.8-1.3-2-1.9-3.6-1.9s-2.8,0.6-3.6,1.9c-0.8,1.3-1.2,3.2-1.2,5.6c0,2.4,0.4,4.3,1.2,5.5
		c0.8,1.3,2,1.9,3.6,1.9S692.3,203.7,693.1,202.5z"/>
	<path d="M706.5,208.1c-0.1-0.1-0.2-0.3-0.2-0.7v-21c0-0.5,0.2-0.8,0.7-0.8h5.2c0.4,0,0.6,0.2,0.6,0.7v2.1c0,0.2,0.1,0.3,0.2,0.3
		c0.1,0,0.2-0.1,0.3-0.2c1.2-1.1,2.3-2,3.5-2.6c1.2-0.6,2.4-0.9,3.7-0.9c2.1,0,3.7,0.6,5,1.8c1.2,1.2,1.8,2.9,1.8,4.9v15.3
		c0,0.7-0.3,1-1,1h-4.8c-0.3,0-0.5-0.1-0.6-0.2c-0.1-0.1-0.2-0.3-0.2-0.7V193c0-1-0.3-1.7-0.8-2.2c-0.5-0.5-1.3-0.8-2.3-0.8
		c-0.9,0-1.6,0.2-2.4,0.6c-0.7,0.4-1.5,1.1-2.3,2v14.7c0,0.3-0.1,0.6-0.3,0.8c-0.2,0.2-0.5,0.2-0.9,0.2h-4.6
		C706.9,208.3,706.6,208.2,706.5,208.1z"/>
</g>
</svg>
