<?xml version="1.0" encoding="utf-8"?>
<!-- Generator: Adobe Illustrator 22.0.1, SVG Export Plug-In . SVG Version: 6.00 Build 0)  -->
<svg version="1.1" id="Capa_1" xmlns="http://www.w3.org/2000/svg" xmlns:xlink="http://www.w3.org/1999/xlink" x="0px" y="0px"
	 viewBox="0 0 50 50" style="enable-background:new 0 0 50 50;" xml:space="preserve">
<path d="M48.1,42.3l-7.4-7.2c2.8-3.6,4.4-7.9,4.4-12.4c0-5.5-2.2-10.6-6.2-14.5c-4-3.9-9.4-6-15-6c-5.7,0-11,2.1-15,6
	c-8.3,8-8.3,21,0,29c4.1,4,9.6,6,15,6c4.6,0,9.1-1.4,12.9-4.2l7.4,7.2c0.6,0.5,1.3,0.8,2,0.8c0.7,0,1.5-0.3,2-0.8
	C49.2,45.1,49.2,43.4,48.1,42.3z M12.7,33.4c-6.1-5.9-6.1-15.4,0-21.3c2.9-2.8,6.9-4.4,11-4.4c4.2,0,8.1,1.6,11,4.4
	c2.9,2.8,4.6,6.6,4.6,10.6c0,4-1.6,7.8-4.6,10.6C28.7,39.2,18.8,39.2,12.7,33.4z"/>
</svg>
