<?xml version="1.0" encoding="utf-8"?>
<!-- Generator: Adobe Illustrator 22.0.1, SVG Export Plug-In . SVG Version: 6.00 Build 0)  -->
<svg version="1.1" id="Capa_1" xmlns="http://www.w3.org/2000/svg" xmlns:xlink="http://www.w3.org/1999/xlink" x="0px" y="0px"
	 viewBox="0 0 50 50" style="enable-background:new 0 0 50 50;" xml:space="preserve">
<path d="M42.5,8.9h-35c-3,0-5.5,2.5-5.5,5.5v21.1c0,3,2.5,5.5,5.5,5.5h35c3,0,5.5-2.5,5.5-5.5V14.5C48,11.4,45.5,8.9,42.5,8.9z
	 M7.6,12.6h35c0.6,0,1.1,0.3,1.4,0.7c-0.1,0-0.1,0.1-0.2,0.1L25.9,25.6c-0.5,0.3-1.1,0.3-1.6,0L6.1,13.3C6.4,12.8,7,12.6,7.6,12.6z
	 M42.5,37.5h-35c-1,0-1.9-0.8-1.9-1.9V17.3l16.5,11.2c0.9,0.6,1.8,0.9,2.8,0.9c1,0,2-0.3,2.8-0.9l16.5-11.3v18.3
	C44.4,36.6,43.6,37.5,42.5,37.5z"/>
</svg>
