<?xml version="1.0" encoding="utf-8"?>
<!-- Generator: Adobe Illustrator 22.1.0, SVG Export Plug-In . SVG Version: 6.00 Build 0)  -->
<svg version="1.1" id="Capa_1" xmlns="http://www.w3.org/2000/svg" xmlns:xlink="http://www.w3.org/1999/xlink" x="0px" y="0px"
	 viewBox="0 0 330 330" style="enable-background:new 0 0 330 330;" xml:space="preserve">
<style type="text/css">
	.st0{fill:#E2E2E1;}
	.st1{fill:#FFFFFF;}
	.st2{display:none;fill:#FFFFFF;}
</style>
<rect x="0" y="0" class="st0" width="330" height="330"/>
<path class="st1" d="M266.7,270.8l-55.3-27.7c-7.1-3.6-11.7-10.9-11.7-18.9v-21.7c1.6-1.8,3.3-4,5.2-6.7
	c7.5-10.6,13.2-22.4,17.2-34.6c7.1-2.2,12.3-8.7,12.3-16.5v-23.2c0-5.1-2.3-9.7-5.8-12.8V75.2c0,0,6.9-52.1-63.7-52.1
	c-70.6,0-63.7,52.1-63.7,52.1v33.5c-3.5,3.2-5.8,7.7-5.8,12.8v23.2c0,6.1,3.2,11.5,8,14.6c5.8,25.2,20.9,43.3,20.9,43.3v21.2
	c0,7.7-4.2,14.8-11,18.5l-51.7,28.2c-14.9,8.1-24.2,23.8-24.2,40.8V330h254.8v-17.6C292.4,294.8,282.4,278.7,266.7,270.8z"/>
<path class="st2" d="M266.7,270.8l-55.3-27.7c-6.5-3.2-10.8-9.6-11.5-16.7c3.1-0.4,6.3-1,9.5-1.7c14.7-3.4,44.2-15.4,44.9-15.8
	c1.6-1,2.6-2.7,2.8-4.6c0.1-1.9-0.7-3.7-2.2-4.9c-0.2-0.2-20.8-31.7-20.8-90.5c0-49.6-11.6-74.8-34.5-74.8h-3.4
	c-8.3-8-14.5-11.5-31.1-11.5c-21.6,0-69,21.7-69,86.3c0,58.8-20.6,90.4-20.7,90.5c-1.5,1.2-2.4,3-2.3,4.9c0.1,1.9,1.1,3.6,2.8,4.6
	c0.7,0.4,16.2,9.6,46.8,14.7c0,0,0.7,0.1,1.9,0.3c-0.1,7.7-4.3,14.7-11,18.4l-51.7,28.2c-14.9,8.1-24.2,23.8-24.2,40.8V330h254.8
	v-17.6C292.4,294.8,282.4,278.7,266.7,270.8z"/>
</svg>
