<?xml version="1.0" encoding="utf-8"?>
<!-- Generator: Adobe Illustrator 22.1.0, SVG Export Plug-In . SVG Version: 6.00 Build 0)  -->
<svg version="1.1" id="Capa_1" xmlns="http://www.w3.org/2000/svg" xmlns:xlink="http://www.w3.org/1999/xlink" x="0px" y="0px"
	 viewBox="0 0 28 28" style="enable-background:new 0 0 28 28;" xml:space="preserve">
<path d="M3.1,7.6c1.7,0,3.1,1.4,3.1,3.1c0,1.7-1.4,3.1-3.1,3.1S0,12.4,0,10.7l0-0.4c0-3.4,2.7-6.1,6.1-6.1v1.8C5,5.8,3.9,6.3,3,7.1
	C2.9,7.3,2.7,7.4,2.6,7.6C2.7,7.6,2.9,7.6,3.1,7.6L3.1,7.6z M10.9,7.6c1.7,0,3.1,1.4,3.1,3.1c0,1.7-1.4,3.1-3.1,3.1
	c-1.7,0-3.1-1.4-3.1-3.1l0-0.4c0-3.4,2.7-6.1,6.1-6.1v1.8c-1.2,0-2.3,0.5-3.1,1.3c-0.2,0.2-0.3,0.3-0.4,0.5
	C10.6,7.6,10.8,7.6,10.9,7.6L10.9,7.6z M10.9,7.6"/>
<path d="M24.9,19.9c-1.7,0-3.1-1.4-3.1-3.1c0-1.7,1.4-3.1,3.1-3.1s3.1,1.4,3.1,3.1l0,0.4c0,3.4-2.7,6.1-6.1,6.1v-1.8
	c1.2,0,2.3-0.5,3.1-1.3c0.2-0.2,0.3-0.3,0.4-0.5C25.3,19.9,25.1,19.9,24.9,19.9L24.9,19.9z M17.1,19.9c-1.7,0-3.1-1.4-3.1-3.1
	c0-1.7,1.4-3.1,3.1-3.1c1.7,0,3.1,1.4,3.1,3.1l0,0.4c0,3.4-2.7,6.1-6.1,6.1v-1.8c1.2,0,2.3-0.5,3.1-1.3c0.2-0.2,0.3-0.3,0.4-0.5
	C17.4,19.9,17.2,19.9,17.1,19.9L17.1,19.9z M17.1,19.9"/>
</svg>
