<?xml version="1.0" encoding="utf-8"?>
<!-- Generator: Adobe Illustrator 22.1.0, SVG Export Plug-In . SVG Version: 6.00 Build 0)  -->
<svg version="1.1" id="Capa_1" xmlns="http://www.w3.org/2000/svg" xmlns:xlink="http://www.w3.org/1999/xlink" x="0px" y="0px"
	 viewBox="0 0 28 28" enable-background="new 0 0 28 28" xml:space="preserve">
<path d="M14,28.1c-1.2,0-2.4-0.2-3.6-0.5c-3.6-1-6.6-3.3-8.5-6.5s-2.4-7-1.4-10.7c1-3.6,3.3-6.6,6.5-8.5l0.4,0.6L7,1.9
	c3.2-1.9,7-2.4,10.6-1.4c3.6,1,6.6,3.3,8.5,6.5c1.9,3.2,2.4,7,1.4,10.7c-1,3.6-3.3,6.6-6.5,8.5C18.8,27.4,16.4,28.1,14,28.1z
	 M14,1.5c-2.2,0-4.3,0.6-6.2,1.7c-2.9,1.7-5,4.4-5.8,7.6C1,14,1.5,17.4,3.1,20.3c1.7,2.9,4.4,5,7.6,5.9c3.2,0.9,6.6,0.4,9.5-1.3
	c2.9-1.7,5-4.4,5.8-7.6c0.9-3.2,0.4-6.6-1.3-9.5c-1.7-2.9-4.4-5-7.6-5.9C16.2,1.6,15.1,1.5,14,1.5z"/>
<path d="M11,20.8c-0.3,0-0.5-0.1-0.8-0.2c-0.5-0.3-0.8-0.8-0.8-1.3V8.8c0-0.6,0.3-1,0.8-1.3c0.5-0.3,1-0.3,1.5,0l9,5.2
	c0.5,0.3,0.8,0.8,0.8,1.3c0,0.6-0.3,1-0.8,1.3l-9,5.2C11.5,20.7,11.2,20.8,11,20.8z M11,8.8C10.9,8.8,10.9,8.8,11,8.8
	C10.9,8.8,10.9,8.8,11,8.8l-0.1,10.5c0,0,0,0,0,0.1c0,0,0.1,0,0.1,0l9-5.2c0,0,0,0,0-0.1c0,0,0-0.1,0-0.1L11,8.8L11,8.8
	C11,8.8,11,8.8,11,8.8z"/>
</svg>
