<?xml version="1.0" encoding="utf-8"?>
<!-- Generator: Adobe Illustrator 22.1.0, SVG Export Plug-In . SVG Version: 6.00 Build 0)  -->
<svg version="1.1" id="Capa_1" xmlns="http://www.w3.org/2000/svg" xmlns:xlink="http://www.w3.org/1999/xlink" x="0px" y="0px"
	 viewBox="0 0 28 28" style="enable-background:new 0 0 28 28;" xml:space="preserve">
<g>
	<path d="M10.8,21.1H4.4c-0.3,0-0.6,0.3-0.6,0.6s0.3,0.6,0.6,0.6h6.4c0.3,0,0.6-0.3,0.6-0.6S11.2,21.1,10.8,21.1L10.8,21.1z
		 M10.8,21.1"/>
	<path d="M20.4,21.1H14c-0.3,0-0.6,0.3-0.6,0.6s0.3,0.6,0.6,0.6h6.4c0.3,0,0.6-0.3,0.6-0.6S20.7,21.1,20.4,21.1L20.4,21.1z
		 M20.4,21.1"/>
	<path d="M20.4,5.2h-16c-0.3,0-0.6,0.3-0.6,0.6c0,0.3,0.3,0.6,0.6,0.6h16c0.3,0,0.6-0.3,0.6-0.6C21,5.5,20.7,5.2,20.4,5.2L20.4,5.2z
		 M20.4,5.2"/>
	<path d="M20.4,17.9H14c-0.3,0-0.6,0.3-0.6,0.6c0,0.3,0.3,0.6,0.6,0.6h6.4c0.3,0,0.6-0.3,0.6-0.6C21,18.2,20.7,17.9,20.4,17.9
		L20.4,17.9z M20.4,17.9"/>
	<path d="M10.8,17.9H4.4c-0.3,0-0.6,0.3-0.6,0.6c0,0.3,0.3,0.6,0.6,0.6h6.4c0.3,0,0.6-0.3,0.6-0.6C11.5,18.2,11.2,17.9,10.8,17.9
		L10.8,17.9z M10.8,17.9"/>
	<path d="M20.4,8.4h-16C4.1,8.4,3.8,8.7,3.8,9v6.4c0,0.3,0.3,0.6,0.6,0.6h16c0.3,0,0.6-0.3,0.6-0.6V9C21,8.7,20.7,8.4,20.4,8.4
		L20.4,8.4z M19.8,14.8H5.1V9.7h14.7V14.8z M19.8,14.8"/>
	<path d="M26.7,4.6h-1.9V2.7c0-0.7-0.6-1.3-1.3-1.3H1.3C0.6,1.4,0,2,0,2.7V23c0,1.7,1.4,3.2,3.2,3.2h21.7c1.7,0,3.2-1.4,3.2-3.2V5.9
		C28,5.2,27.4,4.6,26.7,4.6L26.7,4.6z M26.7,23c0,1-0.9,1.9-1.9,1.9H3.2c-1,0-1.9-0.9-1.9-1.9V2.7h22.3V22c0,0.9,0.7,1.6,1.6,1.6
		c0.3,0,0.6-0.3,0.6-0.6s-0.3-0.6-0.6-0.6c-0.2,0-0.3-0.1-0.3-0.3V5.9h1.9V23z M26.7,23"/>
</g>
</svg>
