<?xml version="1.0" encoding="utf-8"?>
<!-- Generator: Adobe Illustrator 22.0.1, SVG Export Plug-In . SVG Version: 6.00 Build 0)  -->
<svg version="1.1" id="Capa_1" xmlns="http://www.w3.org/2000/svg" xmlns:xlink="http://www.w3.org/1999/xlink" x="0px" y="0px"
	 viewBox="0 0 50 50" style="enable-background:new 0 0 50 50;" xml:space="preserve">
<g>
	<g>
		<path d="M43.7,34.5c-1-1.5-4-3.7-9-6.4c-1.2-0.7-2.6-0.9-3.8-0.6c-0.8,0.2-1.4,0.5-1.9,1c-0.8,0.8-1.9,2.1-2.2,2.5
			c-0.1,0-0.2-0.1-0.3-0.1c-3.4-1.7-6.3-5.7-6.8-6.7c-0.1-0.1-0.1-0.2-0.2-0.4c-0.1-0.1-0.2-0.3-0.2-0.4c0.1-0.1,0.2-0.1,0.3-0.2
			c1.3-0.8,4.3-2.8,2.9-7.1c-0.9-3.1-3.9-6.6-5.6-8.4c-0.9-0.9-2-1.6-3.1-1.8c-1.2-0.3-2.5-0.1-3.7,0.4c-2.3,1-4.2,2.7-5.6,5
			C1.6,16,3.9,21.5,4.7,23.6c1.8,4.5,5.5,9.7,9.9,13.9c3.7,3.6,9.7,8.2,16.7,9.3c0.3,0.1,1.1,0.2,2.2,0.2c2.4,0,6.1-0.6,9-4.1
			C45.8,39,44.9,36.4,43.7,34.5L43.7,34.5z M39.7,40.5c-3.1,3.6-7.5,2.7-7.7,2.6c0,0-0.1,0-0.1,0c-6.1-0.9-11.4-5-14.8-8.3
			c-3.9-3.8-7.4-8.7-9-12.6c-0.7-1.8-2.4-5.9-0.5-9.1c0,0,0,0,0,0c1-1.7,2.3-2.9,3.9-3.6c0.3-0.1,0.6-0.2,1-0.2c0.2,0,0.3,0,0.5,0.1
			c0.5,0.1,0.9,0.4,1.3,0.8c0.9,1,4,4.4,4.8,6.9c0.5,1.6-0.1,2.2-1.4,3c-0.2,0.2-0.4,0.3-0.6,0.4c-0.7,0.5-1.2,1.3-1.3,2.2
			c-0.2,1.2,0.2,2.1,0.5,2.7c0,0.1,0.1,0.2,0.1,0.3c0.7,1.6,4.2,6.3,8.5,8.5c1.1,0.6,2.2,0.7,3.1,0.4c0.9-0.3,1.3-0.8,1.6-1.2
			c0.4-0.5,1.3-1.6,1.9-2.2c0,0,0.1,0,0.1,0c0.4-0.1,0.9,0,1.3,0.2c4.6,2.5,7.2,4.4,7.7,5.1l0.1,0.1C41.2,37.3,41.7,38.2,39.7,40.5z
			 M35.2,21.3c0,1,0.8,1.8,1.8,1.8s1.8-0.8,1.8-1.8c0-5.6-4.5-10.1-10.1-10.1c-1,0-1.8,0.8-1.8,1.8c0,1,0.8,1.8,1.8,1.8
			C32.4,14.8,35.2,17.7,35.2,21.3z M28.8,3.1c-1,0-1.8,0.8-1.8,1.8c0,1,0.8,1.8,1.8,1.8c8,0,14.5,6.5,14.5,14.6c0,1,0.8,1.8,1.8,1.8
			c1,0,1.8-0.8,1.8-1.8C47,11.2,38.8,3.1,28.8,3.1z"/>
	</g>
</g>
</svg>
